<svg width="30" height="29" viewBox="0 0 30 29" fill="none" xmlns="http://www.w3.org/2000/svg">
<path d="M29.3672 6.75926H0.617188C0.272 6.75926 -0.0078125 6.49809 -0.0078125 6.17591V4.80504C-0.0078125 2.66602 1.85669 0.925781 4.14844 0.925781H25.8359C28.1277 0.925781 29.9922 2.66602 29.9922 4.80504V6.17591C29.9922 6.49809 29.7123 6.75926 29.3672 6.75926ZM1.24219 5.59256H28.7422V4.80504C28.7422 3.30934 27.4385 2.09248 25.8359 2.09248H4.14844C2.54594 2.09248 1.24219 3.30934 1.24219 4.80504V5.59256Z" fill="white"/>
<path d="M25.8359 28.9276H4.14844C1.85669 28.9276 -0.0078125 27.1874 -0.0078125 25.0484V6.1771C-0.0078125 5.85491 0.272 5.59375 0.617188 5.59375H29.3672C29.7123 5.59375 29.9922 5.85491 29.9922 6.1771V25.0484C29.9922 27.1874 28.1277 28.9276 25.8359 28.9276ZM1.24219 6.76044V25.0484C1.24219 26.5441 2.54594 27.761 4.14844 27.761H25.8359C27.4385 27.761 28.7422 26.5441 28.7422 25.0484V6.76044H1.24219Z" fill="white"/>
<path d="M26.8672 17.8453H3.11719C2.772 17.8453 2.49219 17.5841 2.49219 17.2619V9.09507C2.49219 8.77288 2.772 8.51172 3.11719 8.51172H26.8672C27.2123 8.51172 27.4922 8.77288 27.4922 9.09507V17.2619C27.4922 17.5841 27.2123 17.8453 26.8672 17.8453ZM3.74219 16.6786H26.2422V9.67841H3.74219V16.6786Z" fill="white"/>
<path d="M13.1172 24.8413H3.11719C2.772 24.8413 2.49219 24.5801 2.49219 24.2579V19.5912C2.49219 19.269 2.772 19.0078 3.11719 19.0078H13.1172C13.4624 19.0078 13.7422 19.269 13.7422 19.5912V24.2579C13.7422 24.5801 13.4624 24.8413 13.1172 24.8413ZM3.74219 23.6746H12.4922V20.1745H3.74219V23.6746Z" fill="white"/>
<path d="M26.8672 24.8413H16.8672C16.5221 24.8413 16.2422 24.5801 16.2422 24.2579V19.5912C16.2422 19.269 16.5221 19.0078 16.8672 19.0078H26.8672C27.2123 19.0078 27.4922 19.269 27.4922 19.5912V24.2579C27.4922 24.5801 27.2123 24.8413 26.8672 24.8413ZM17.4922 23.6746H26.2422V20.1745H17.4922V23.6746Z" fill="white"/>
<path d="M3.11781 24.8415C2.88856 24.8415 2.66781 24.7234 2.55831 24.5189C2.40394 24.2308 2.52906 23.8804 2.83781 23.7363L12.8378 19.0695C13.1466 18.9254 13.522 19.0422 13.6764 19.3305C13.8308 19.6186 13.7056 19.969 13.3969 20.1131L3.39688 24.7799C3.30713 24.8217 3.21169 24.8415 3.11781 24.8415Z" fill="white"/>
<path d="M13.1168 24.8415C13.0229 24.8415 12.9275 24.8217 12.8378 24.7798L2.83781 20.113C2.52906 19.969 2.40394 19.6185 2.55831 19.3304C2.71263 19.0423 3.08806 18.9255 3.39688 19.0695L13.3969 23.7363C13.7056 23.8804 13.8308 24.2308 13.6764 24.5189C13.5668 24.7234 13.3461 24.8415 13.1168 24.8415Z" fill="white"/>
<path d="M16.8678 24.8415C16.6385 24.8415 16.4178 24.7234 16.3083 24.519C16.1539 24.2308 16.2791 23.8804 16.5879 23.7363L26.5879 19.0696C26.8964 18.9254 27.272 19.0423 27.4264 19.3305C27.5808 19.6186 27.4556 19.969 27.1468 20.1131L17.1468 24.7799C17.0571 24.8217 16.9618 24.8415 16.8678 24.8415Z" fill="white"/>
<path d="M26.8668 24.8415C26.7729 24.8415 26.6776 24.8217 26.5878 24.7798L16.5878 20.113C16.2791 19.969 16.154 19.6185 16.3083 19.3304C16.4626 19.0423 16.838 18.9255 17.1468 19.0695L27.1468 23.7363C27.4555 23.8804 27.5806 24.2308 27.4263 24.5189C27.3168 24.7234 27.0961 24.8415 26.8668 24.8415Z" fill="white"/>
<path d="M3.11739 17.8456C2.86301 17.8456 2.62395 17.6996 2.53089 17.4638C2.41157 17.1614 2.57739 16.8261 2.90126 16.7147L26.6513 8.54785C26.9749 8.43648 27.3345 8.59119 27.4538 8.89354C27.5731 9.19583 27.4073 9.53119 27.0834 9.64256L3.33339 17.8094C3.26214 17.834 3.18914 17.8456 3.11739 17.8456Z" fill="white"/>
<path d="M26.8673 17.8456C26.7955 17.8456 26.7226 17.8339 26.6513 17.8094L2.90126 9.64258C2.57739 9.53122 2.41157 9.19585 2.53089 8.89356C2.6502 8.59121 3.00964 8.43645 3.33339 8.54787L27.0834 16.7147C27.4073 16.8261 27.5731 17.1615 27.4538 17.4638C27.3608 17.6995 27.1216 17.8456 26.8673 17.8456Z" fill="white"/>
</svg>
