<svg width="29" height="30" viewBox="0 0 29 30" fill="none" xmlns="http://www.w3.org/2000/svg">
<path d="M17.6708 0.639128C17.6708 0.306944 17.9707 0.0351562 18.3372 0.0351562C18.7038 0.0351562 19.0041 0.306944 19.0041 0.639128C19.0041 0.971313 18.7038 1.24346 18.3372 1.24346C17.9707 1.24346 17.6708 0.971313 17.6708 0.639128ZM28.3105 18.1601V24.2019C28.3105 25.5346 27.1141 26.6186 25.644 26.6186H23.6438V28.4312C23.6438 28.7652 23.3455 29.0352 22.9774 29.0352H0.977393C0.609259 29.0352 0.310547 28.7652 0.310547 28.4312V23.5976V6.07667C0.310547 6.07595 0.310943 6.07488 0.310943 6.0738C0.310943 6.04072 0.31491 6.00801 0.320464 5.97601C0.322844 5.96343 0.326811 5.95121 0.329985 5.93862C0.334745 5.92029 0.340299 5.90195 0.346646 5.88398C0.352597 5.8678 0.358944 5.85198 0.366481 5.83688C0.372035 5.82502 0.378778 5.81315 0.385126 5.80165C0.410514 5.75635 0.439473 5.71249 0.477159 5.67223L5.18079 0.882155L5.81232 0.238278C5.8397 0.210236 5.87024 0.186149 5.90198 0.16386C5.91428 0.154872 5.92737 0.146963 5.94046 0.139054C5.96148 0.126112 5.9833 0.114607 6.00591 0.104182C6.02099 0.0973511 6.03567 0.0894419 6.05114 0.0836898C6.08565 0.070388 6.12135 0.0596029 6.15824 0.0516938C6.17054 0.0491772 6.18324 0.0480986 6.19553 0.046301C6.22648 0.0416274 6.25742 0.0380325 6.28915 0.0373135C6.29629 0.036954 6.30343 0.0351562 6.31058 0.0351562H15.6706C16.0372 0.0351562 16.3375 0.306944 16.3375 0.639128C16.3375 0.971313 16.0372 1.24346 15.6706 1.24346H6.97742V6.07667C6.97742 6.41066 6.67871 6.68101 6.31058 6.68101H1.64424V22.9936H4.31083V23.5976V24.2019H1.64424V27.8269H22.3109V26.6186H4.31083C3.9427 26.6186 3.64438 26.3482 3.64438 26.0146C3.64438 25.6806 3.9427 25.4102 4.31083 25.4102H22.3109H22.9778H23.6442H25.6444C26.3798 25.4102 26.9776 24.8681 26.9776 24.2019V18.1601C26.9776 17.4939 26.3798 16.9518 25.6444 16.9518H23.6442H22.9778H22.3109H4.31083C3.9427 16.9518 3.64438 16.6818 3.64438 16.3478C3.64438 16.0138 3.9427 15.7435 4.31083 15.7435H22.3109V1.24346H21.0046C20.6377 1.24346 20.3377 0.971313 20.3377 0.639128C20.3377 0.306944 20.6377 0.0351562 21.0046 0.0351562H22.9778C23.1511 0.0351562 23.3245 0.101306 23.451 0.210236C23.5708 0.32456 23.6442 0.482383 23.6442 0.639128V15.7435H25.6444C27.1145 15.7435 28.3105 16.8274 28.3105 18.1601ZM5.64413 2.22815L3.45873 4.45673L2.46262 5.4727H5.64452V2.22887L5.64413 2.22815ZM19.6439 23.5976C19.6439 23.9316 19.9422 24.2019 20.3108 24.2019C20.6789 24.2019 20.9772 23.9316 20.9772 23.5976V22.9936V18.7644C20.9772 18.5102 20.8015 18.283 20.5377 18.1964C20.2743 18.1101 19.9783 18.1816 19.7986 18.3772L18.6439 19.633L17.4891 18.3772C17.309 18.1816 17.013 18.1101 16.75 18.1964C16.4858 18.283 16.3101 18.5102 16.3101 18.7644V22.9936V23.5976C16.3101 23.9316 16.6088 24.2019 16.9769 24.2019C17.3451 24.2019 17.6434 23.9316 17.6434 23.5976V22.9936V20.4329L18.1313 20.9639C18.3848 21.2389 18.9021 21.2389 19.1556 20.9639L19.6435 20.4329V22.9936L19.6439 23.5976ZM22.9774 18.1601C22.6092 18.1601 22.3105 18.4304 22.3105 18.7644V22.9936V23.5976C22.3105 23.9316 22.6092 24.2019 22.9774 24.2019H23.6438H24.9775C25.3456 24.2019 25.644 23.9316 25.644 23.5976C25.644 23.2636 25.3456 22.9936 24.9775 22.9936H23.6438V18.7644C23.6442 18.4304 23.3455 18.1601 22.9774 18.1601ZM6.97742 18.1601C6.60929 18.1601 6.31058 18.4304 6.31058 18.7644V21.181V22.9936V23.5976C6.31058 23.9316 6.60889 24.2019 6.97742 24.2019C7.34556 24.2019 7.64387 23.9316 7.64387 23.5976V22.9936V21.7853H8.97717V22.9936V23.5976C8.97717 23.9316 9.27548 24.2019 9.64401 24.2019C10.0121 24.2019 10.3105 23.9316 10.3105 23.5976V22.9936V21.181V18.7644C10.3105 18.4304 10.0121 18.1601 9.64401 18.1601C9.27588 18.1601 8.97717 18.4304 8.97717 18.7644V20.577H7.64387V18.7644C7.64387 18.4304 7.34556 18.1601 6.97742 18.1601ZM12.6442 23.5976C12.6442 23.9316 12.9425 24.2019 13.3107 24.2019C13.6788 24.2019 13.9775 23.9316 13.9775 23.5976V22.9936V19.3684H14.3107C14.6789 19.3684 14.9772 19.0984 14.9772 18.7644C14.9772 18.4304 14.6789 18.1601 14.3107 18.1601H13.3107H12.3106C11.9425 18.1601 11.6438 18.4304 11.6438 18.7644C11.6438 19.0984 11.9425 19.3684 12.3106 19.3684H12.6438V22.9936L12.6442 23.5976ZM9.4893 8.40844C9.25327 8.15175 8.83317 8.1176 8.55032 8.33114L6.55058 9.84143C6.39864 9.95647 6.31058 10.1265 6.31058 10.3056C6.31058 10.485 6.39864 10.655 6.55058 10.77L8.55032 12.2803C8.67528 12.3742 8.82642 12.4202 8.97677 12.4202C9.16798 12.4202 9.3572 12.3461 9.4889 12.203C9.72454 11.9467 9.68646 11.5653 9.40361 11.3517L8.01796 10.3056L9.40361 9.25939C9.68725 9.0462 9.72494 8.66512 9.4893 8.40844ZM15.1319 12.2034C15.2636 12.3468 15.4532 12.4205 15.644 12.4205C15.7944 12.4205 15.9459 12.3745 16.0705 12.2807L18.0702 10.7704C18.2222 10.6554 18.3102 10.4853 18.3102 10.3059C18.3102 10.1265 18.2222 9.95683 18.0702 9.84179L16.0705 8.3315C15.7876 8.11867 15.3671 8.15283 15.1315 8.4088C14.8959 8.66548 14.934 9.04656 15.2168 9.26011L16.6025 10.3063L15.2168 11.3524C14.9344 11.5656 14.8963 11.9467 15.1319 12.2034ZM12.2666 7.1667L10.9333 13.2082C10.8611 13.5357 11.0951 13.8539 11.4561 13.9193C11.5006 13.9276 11.5442 13.9308 11.5878 13.9308C11.8988 13.9308 12.1777 13.7327 12.2408 13.4455L13.5741 7.40361C13.6463 7.0761 13.4122 6.7583 13.0512 6.69287C12.6871 6.62528 12.3384 6.83883 12.2666 7.1667Z" fill="white"/>
</svg>
