<svg width="33" height="34" viewBox="0 0 33 34" fill="none" xmlns="http://www.w3.org/2000/svg">
<g clip-path="url(#clip0_111_2060)">
<path d="M12.0875 5.59665C11.8705 5.59665 11.6555 5.50131 11.5061 5.31735C11.2381 4.98779 11.281 4.49759 11.602 4.22295L13.5664 2.53989C13.8869 2.26473 14.3648 2.3093 14.6323 2.63834C14.9003 2.96791 14.8574 3.45811 14.5364 3.73275L12.572 5.41581C12.4307 5.53758 12.2586 5.59665 12.0875 5.59665Z" fill="white"/>
<path d="M14.0511 7.27761C13.8805 7.27761 13.7084 7.21854 13.5671 7.09728L11.6027 5.41733C11.2812 5.1427 11.2378 4.6525 11.5058 4.32293C11.7728 3.99337 12.2508 3.94777 12.5718 4.22344L14.5362 5.90339C14.8577 6.17803 14.9011 6.66823 14.6331 6.99779C14.4837 7.18175 14.2682 7.27761 14.0511 7.27761Z" fill="white"/>
<path d="M18.8765 7.27749C18.6595 7.27749 18.4445 7.18214 18.2946 6.99767C18.027 6.6681 18.0705 6.1779 18.391 5.90275L20.3538 4.2228C20.6758 3.94868 21.1528 3.99272 21.4203 4.32229C21.6878 4.65185 21.6444 5.14205 21.3239 5.41721L19.361 7.09716C19.2192 7.2179 19.0476 7.27749 18.8765 7.27749Z" fill="white"/>
<path d="M20.8369 5.59734C20.6658 5.59734 20.4937 5.53827 20.3519 5.41649L18.389 3.73343C18.068 3.45828 18.0251 2.96808 18.2936 2.63851C18.5616 2.30895 19.0386 2.2649 19.3601 2.54006L21.3229 4.22312C21.644 4.49827 21.6869 4.98847 21.4183 5.31804C21.2684 5.50251 21.0539 5.59734 20.8369 5.59734Z" fill="white"/>
<path d="M16.1936 7.27763C16.1522 7.27763 16.1103 7.27452 16.0684 7.26674C15.656 7.19627 15.3769 6.79571 15.4461 6.37236L15.9912 3.00935C16.0598 2.586 16.4515 2.2984 16.8623 2.37043C17.2747 2.4409 17.5533 2.84146 17.4846 3.26481L16.9395 6.62782C16.8775 7.00817 16.557 7.27763 16.1936 7.27763Z" fill="white"/>
<path d="M19.4549 9.33403H13.4699C11.0452 9.33403 9.07227 7.30897 9.07227 4.81962C9.07227 2.33027 11.0452 0.304688 13.4699 0.304688H19.4544C21.8796 0.304688 23.8521 2.32975 23.8521 4.8191C23.8521 7.30845 21.8796 9.33403 19.4549 9.33403ZM13.4699 1.85924C11.88 1.85924 10.5864 3.18734 10.5864 4.8191C10.5864 6.45086 11.88 7.77896 13.4699 7.77896H19.4544C21.0443 7.77896 22.3379 6.45086 22.3379 4.8191C22.3379 3.18734 21.0448 1.85924 19.4549 1.85924H13.4699Z" fill="white"/>
<path d="M21.4037 33.4707H11.5227C10.5354 33.4707 9.73242 32.6463 9.73242 31.6327V14.9239C9.73242 13.9104 10.5354 13.0859 11.5227 13.0859H21.4037C22.3909 13.0859 23.1944 13.9104 23.1944 14.9239V31.6327C23.1944 32.6463 22.3909 33.4707 21.4037 33.4707ZM11.5227 14.6405C11.3703 14.6405 11.2466 14.768 11.2466 14.9239V31.6327C11.2466 31.7892 11.3703 31.9162 11.5227 31.9162H21.4037C21.5561 31.9162 21.6802 31.7892 21.6802 31.6327V14.9239C21.6802 14.7674 21.5561 14.6405 21.4037 14.6405H11.5227Z" fill="white"/>
<path d="M22.4373 30.4518H10.4895C10.0711 30.4518 9.73242 30.1036 9.73242 29.6746V16.8749C9.73242 16.4454 10.0711 16.0977 10.4895 16.0977H22.4373C22.8552 16.0977 23.1944 16.4454 23.1944 16.8749V29.6746C23.1944 30.1036 22.8552 30.4518 22.4373 30.4518ZM11.2466 28.8973H21.6802V17.6517H11.2466V28.8973Z" fill="white"/>
<path d="M7.54711 18.0827C7.42749 18.0827 7.30585 18.0532 7.19229 17.9915C4.75346 16.6608 3.23828 14.0746 3.23828 11.2417C3.23828 8.69999 4.46476 6.33189 6.51848 4.90689C6.86523 4.66645 7.33563 4.75972 7.56982 5.11572C7.80401 5.47171 7.71316 5.95466 7.36642 6.19509C5.7296 7.33043 4.75245 9.21714 4.75245 11.2417C4.75245 13.4978 5.95975 15.5587 7.90294 16.6189C8.27189 16.8204 8.41221 17.2909 8.21637 17.6703C8.0806 17.933 7.81865 18.0827 7.54711 18.0827Z" fill="white"/>
<path d="M7.5481 18.0826C7.12969 18.0826 6.79102 17.7343 6.79102 17.3053V14.789C6.79102 14.3594 7.12969 14.0117 7.5481 14.0117C7.96652 14.0117 8.30519 14.3594 8.30519 14.789V17.3053C8.30519 17.7343 7.96601 18.0826 7.5481 18.0826Z" fill="white"/>
<path d="M4.83706 18.8145C4.50142 18.8145 4.19505 18.5839 4.10521 18.2352C3.99871 17.8196 4.24048 17.3947 4.64476 17.2853L7.35715 16.5526C7.76244 16.4448 8.17581 16.6915 8.2823 17.1066C8.3888 17.5221 8.14704 17.9471 7.74276 18.0559L5.03037 18.7886C4.96577 18.8062 4.90066 18.8145 4.83706 18.8145Z" fill="white"/>
<path d="M25.9808 18.8173C25.738 18.8173 25.4993 18.6976 25.3529 18.4753C25.1188 18.1193 25.2101 17.6364 25.5563 17.3959C27.1932 16.2601 28.1708 14.3734 28.1708 12.3488C28.1708 10.0927 26.9635 8.03186 25.0208 6.97166C24.6519 6.77008 24.5116 6.29957 24.7079 5.92026C24.9047 5.54095 25.363 5.39793 25.7315 5.59847C28.1703 6.92968 29.685 9.51594 29.685 12.3483C29.685 14.89 28.4585 17.2581 26.4043 18.6836C26.2741 18.7743 26.1267 18.8173 25.9808 18.8173Z" fill="white"/>
<path d="M25.3762 9.57866C24.9583 9.57866 24.6191 9.23096 24.6191 8.80139V6.28509C24.6191 5.85551 24.9583 5.50781 25.3762 5.50781C25.7941 5.50781 26.1333 5.85551 26.1333 6.28509V8.80139C26.1333 9.23044 25.7941 9.57866 25.3762 9.57866Z" fill="white"/>
<path d="M25.3756 7.06111C25.04 7.06111 24.7336 6.83 24.6443 6.48126C24.5378 6.0662 24.7795 5.64129 25.1833 5.53195L27.8957 4.79924C28.3015 4.6899 28.7144 4.93811 28.8204 5.35318C28.9269 5.76824 28.6851 6.19315 28.2813 6.30249L25.5689 7.0352C25.5043 7.05282 25.4392 7.06111 25.3756 7.06111Z" fill="white"/>
</g>
<defs>
<clipPath id="clip0_111_2060">
<rect width="32" height="33" fill="white" transform="translate(0.310547 0.304688)"/>
</clipPath>
</defs>
</svg>
