<svg width="32" height="37" viewBox="0 0 32 37" fill="none" xmlns="http://www.w3.org/2000/svg">
<path fill-rule="evenodd" clip-rule="evenodd" d="M18.9295 3.8051C21.226 3.8051 23.0905 6.31208 23.0905 9.39993C23.0905 9.6863 23.2641 9.91967 23.4771 9.91967C23.6901 9.91967 23.8636 9.6863 23.8636 9.39993C23.8636 5.73833 21.6528 2.76562 18.9295 2.76562C18.7165 2.76562 18.543 2.999 18.543 3.28536C18.543 3.57173 18.7165 3.8051 18.9295 3.8051Z" fill="white"/>
<path fill-rule="evenodd" clip-rule="evenodd" d="M25.5921 27.0644H26.264C29.4176 27.0644 31.9771 23.6229 31.9771 19.3827C31.9771 15.1435 29.4176 11.702 26.264 11.702C25.9489 11.702 25.6392 11.7362 25.338 11.8027C25.4994 11.0238 25.5851 10.2034 25.5851 9.35601C25.5851 4.32659 22.5482 0.242188 18.8069 0.242188C15.563 0.242188 12.8482 3.31405 12.184 7.40987C11.3792 6.51262 10.3458 5.9726 9.2189 5.9726C6.6539 5.9726 4.57163 8.77238 4.57163 12.2212C4.57163 13.051 4.69212 13.8423 4.91147 14.5672C2.36733 14.6004 0.310547 17.3877 0.310547 20.8158C0.310547 24.2646 2.39282 27.0644 4.95781 27.0644H6.66472V35.6237C6.66472 35.9103 6.83773 36.1429 7.0509 36.1429H25.2059C25.4191 36.1429 25.5921 35.9103 25.5921 35.6237V27.0644ZM17.4499 30.0397H24.8197V35.1044H7.43708V30.0397H17.4499ZM17.4499 23.9375H7.43708V29.0012H24.8197V23.9375H17.4499ZM25.5921 26.0259H26.264C28.9912 26.0259 31.2048 23.0496 31.2048 19.3827C31.2048 15.7168 28.9912 12.7405 26.264 12.7405C25.7774 12.7405 25.3071 12.835 24.863 13.0115C24.7209 13.0686 24.5679 13.0115 24.4683 12.8641C24.3687 12.7176 24.3393 12.5078 24.3942 12.323C24.6645 11.405 24.8128 10.4039 24.8128 9.35601C24.8128 4.89983 22.1219 1.28068 18.8069 1.28068C15.6982 1.28068 13.1378 4.46367 12.832 8.5356C12.8165 8.74226 12.7115 8.91569 12.564 8.97904C12.4165 9.04135 12.2558 8.97904 12.1554 8.82223C11.4448 7.71312 10.3921 7.0111 9.2189 7.0111C7.08024 7.0111 5.34399 9.34563 5.34399 12.2212C5.34399 13.1901 5.54172 14.0988 5.88541 14.8766C5.96111 15.048 5.95724 15.263 5.8746 15.4291C5.79273 15.5953 5.64676 15.6836 5.49924 15.6555C5.32237 15.6223 5.14163 15.6057 4.95781 15.6057C2.81916 15.6057 1.0829 17.9402 1.0829 20.8158C1.0829 23.6914 2.81916 26.0259 4.95781 26.0259H6.66472V17.315C6.66472 17.0284 6.83773 16.7958 7.0509 16.7958H25.2059C25.4191 16.7958 25.5921 17.0284 25.5921 17.315V26.0259ZM24.8197 22.899H7.43708V17.8343H24.8197V22.899Z" fill="white"/>
<path d="M22.9374 19.6016H21.8027V21.1272H22.9374V19.6016Z" fill="white"/>
<path d="M22.9374 25.707H21.8027V27.2327H22.9374V25.707Z" fill="white"/>
<path d="M22.9374 31.8086H21.8027V33.3343H22.9374V31.8086Z" fill="white"/>
<path d="M20.6679 19.6016H19.5332V21.1272H20.6679V19.6016Z" fill="white"/>
<path d="M20.6679 25.707H19.5332V27.2327H20.6679V25.707Z" fill="white"/>
<path d="M20.6679 31.8086H19.5332V33.3343H20.6679V31.8086Z" fill="white"/>
<path d="M18.4003 19.6016H17.2656V21.1272H18.4003V19.6016Z" fill="white"/>
<path d="M18.4003 25.707H17.2656V27.2327H18.4003V25.707Z" fill="white"/>
<path d="M18.4003 31.8086H17.2656V33.3343H18.4003V31.8086Z" fill="white"/>
<path fill-rule="evenodd" clip-rule="evenodd" d="M9.0149 20.8856H15.2549C15.468 20.8856 15.6409 20.6531 15.6409 20.3666C15.6409 20.0802 15.468 19.8477 15.2549 19.8477H9.0149C8.80184 19.8477 8.62891 20.0802 8.62891 20.3666C8.62891 20.6531 8.80184 20.8856 9.0149 20.8856Z" fill="white"/>
<path fill-rule="evenodd" clip-rule="evenodd" d="M9.0149 26.9872H15.2549C15.468 26.9872 15.6409 26.7547 15.6409 26.4682C15.6409 26.1817 15.468 25.9492 15.2549 25.9492H9.0149C8.80184 25.9492 8.62891 26.1817 8.62891 26.4682C8.62891 26.7547 8.80184 26.9872 9.0149 26.9872Z" fill="white"/>
<path fill-rule="evenodd" clip-rule="evenodd" d="M9.0149 33.0927H15.2549C15.468 33.0927 15.6409 32.8601 15.6409 32.5737C15.6409 32.2872 15.468 32.0547 15.2549 32.0547H9.0149C8.80184 32.0547 8.62891 32.2872 8.62891 32.5737C8.62891 32.8601 8.80184 33.0927 9.0149 33.0927Z" fill="white"/>
</svg>
