<svg width="218" height="50" viewBox="0 0 218 50" fill="none" xmlns="http://www.w3.org/2000/svg">
<g clip-path="url(#clip0_145_3883)">
<path d="M68.1156 28.222C66.9387 28.222 65.7624 28.1804 64.5856 28.0973C63.4297 28.0349 62.2221 27.8686 60.9629 27.5984V6.64578C61.9538 6.45871 63.0375 6.3236 64.2141 6.24045C65.3906 6.13652 66.4845 6.08455 67.496 6.08455C68.8585 6.08455 70.1075 6.18848 71.2429 6.39635C72.3991 6.58342 73.3898 6.91601 74.2151 7.39406C75.041 7.87217 75.6807 8.50616 76.1349 9.29604C76.6098 10.0651 76.8473 11.0213 76.8473 12.1646C76.8473 13.8898 76.0214 15.2513 74.3701 16.2491C75.7326 16.7687 76.6617 17.4754 77.1568 18.3693C77.6525 19.2631 77.8997 20.2712 77.8997 21.3937C77.8997 23.6594 77.0744 25.3639 75.4232 26.5071C73.7921 27.6503 71.3564 28.222 68.1156 28.222ZM65.6696 18.5252V24.1063C66.0206 24.1479 66.4021 24.179 66.8148 24.1998C67.2281 24.2206 67.6822 24.231 68.1773 24.231C69.6222 24.231 70.7887 24.0232 71.6763 23.6074C72.5639 23.1917 73.0077 22.4226 73.0077 21.3001C73.0077 20.3024 72.6359 19.5956 71.893 19.1799C71.1501 18.7434 70.0867 18.5252 68.7041 18.5252H65.6696ZM65.6696 14.8148H68.0228C69.5086 14.8148 70.572 14.6277 71.2117 14.2536C71.8515 13.8587 72.172 13.2351 72.172 12.3828C72.172 11.5098 71.8417 10.8966 71.1806 10.5432C70.5201 10.1899 69.5501 10.0131 68.27 10.0131C67.8574 10.0131 67.4136 10.0235 66.9387 10.0444C66.4644 10.0444 66.0407 10.0651 65.6696 10.1067V14.8148ZM87.6805 24.6987C88.1346 24.6987 88.5681 24.6883 88.9813 24.6675C89.394 24.6468 89.7242 24.6155 89.9721 24.574V21.0507C89.7859 21.0091 89.5075 20.9676 89.1358 20.926C88.7646 20.8844 88.424 20.8636 88.1139 20.8636C87.6805 20.8636 87.2678 20.8948 86.8753 20.9572C86.5042 20.9987 86.1739 21.0923 85.8846 21.2378C85.5959 21.3833 85.3688 21.5807 85.2033 21.8302C85.0385 22.0796 84.9561 22.3914 84.9561 22.7656C84.9561 23.4931 85.1929 24.0024 85.6679 24.2934C86.1636 24.5636 86.8344 24.6987 87.6805 24.6987ZM87.3094 11.1045C88.6712 11.1045 89.8066 11.2604 90.715 11.5721C91.6233 11.884 92.3461 12.3308 92.8826 12.9128C93.44 13.4949 93.8318 14.2016 94.0589 15.0331C94.286 15.8645 94.3996 16.7895 94.3996 17.8081V27.4737C93.7391 27.6192 92.8204 27.7854 91.6441 27.9726C90.4671 28.1804 89.043 28.2843 87.371 28.2843C86.318 28.2843 85.3584 28.1908 84.4916 28.0037C83.6449 27.8167 82.9124 27.5152 82.2928 27.0995C81.6738 26.663 81.1989 26.1018 80.8686 25.4158C80.5384 24.7299 80.3729 23.888 80.3729 22.8903C80.3729 21.9341 80.5591 21.1235 80.9303 20.4583C81.3228 19.7931 81.8386 19.2631 82.479 18.8682C83.1187 18.4732 83.8512 18.1926 84.6771 18.0263C85.5031 17.8392 86.3595 17.7457 87.2471 17.7457C87.8459 17.7457 88.3721 17.7768 88.8263 17.8392C89.3012 17.8808 89.6827 17.9432 89.9721 18.0263V17.5898C89.9721 16.7999 89.7346 16.1659 89.2597 15.6879C88.7848 15.2098 87.9595 14.9707 86.7825 14.9707C85.9981 14.9707 85.2241 15.0331 84.4604 15.1578C83.6968 15.2617 83.0363 15.4176 82.479 15.6255L81.8905 11.884C82.1585 11.8008 82.4894 11.7176 82.8812 11.6345C83.2939 11.5306 83.7377 11.4474 84.2126 11.3851C84.6875 11.3019 85.1832 11.2396 85.699 11.198C86.2356 11.1356 86.7722 11.1045 87.3094 11.1045ZM98.5714 12.1022C99.3558 11.8736 100.367 11.6657 101.606 11.4786C102.844 11.2707 104.145 11.1668 105.507 11.1668C106.89 11.1668 108.036 11.3539 108.945 11.728C109.873 12.0814 110.606 12.5907 111.143 13.2558C111.679 13.921 112.061 14.7109 112.289 15.6255C112.516 16.5401 112.629 17.5586 112.629 18.681V27.9414H108.015V19.2423C108.015 17.7457 107.82 16.6856 107.427 16.062C107.035 15.4384 106.302 15.1266 105.229 15.1266C104.899 15.1266 104.548 15.1474 104.176 15.189C103.805 15.2098 103.474 15.2409 103.185 15.2825V27.9414H98.5714V12.1022ZM120.737 19.6164C120.737 21.0507 121.057 22.2043 121.698 23.0774C122.337 23.9504 123.287 24.3869 124.546 24.3869C124.958 24.3869 125.341 24.3765 125.692 24.3557C126.043 24.3142 126.331 24.2726 126.558 24.231V15.7814C126.27 15.5943 125.888 15.4384 125.413 15.3137C124.958 15.189 124.495 15.1266 124.02 15.1266C121.831 15.1266 120.737 16.6232 120.737 19.6164ZM131.172 27.4113C130.759 27.5361 130.285 27.6607 129.748 27.7854C129.211 27.8894 128.644 27.9829 128.045 28.0661C127.467 28.1492 126.868 28.2116 126.249 28.2532C125.65 28.3155 125.072 28.3467 124.515 28.3467C123.173 28.3467 121.976 28.1492 120.923 27.7543C119.871 27.3593 118.983 26.7981 118.26 26.0706C117.538 25.3223 116.981 24.4285 116.588 23.3892C116.216 22.3291 116.031 21.1442 116.031 19.8347C116.031 18.5044 116.196 17.3092 116.527 16.2491C116.857 15.1682 117.331 14.2536 117.951 13.5053C118.57 12.7569 119.324 12.1853 120.211 11.7904C121.119 11.3955 122.151 11.198 123.307 11.198C123.947 11.198 124.515 11.2604 125.01 11.3851C125.526 11.5098 126.043 11.6865 126.558 11.9151V4.4944L131.172 3.74609V27.4113ZM145.098 18.5252C144.685 20.1049 144.241 21.6743 143.767 23.2333C143.313 24.7923 142.827 26.3616 142.312 27.9414H138.72C138.348 27.0683 137.946 26.029 137.512 24.8234C137.078 23.6178 136.624 22.3083 136.15 20.8948C135.696 19.4605 135.221 17.9536 134.725 16.3738C134.251 14.7733 133.786 13.1623 133.332 11.541H138.193C138.358 12.2893 138.534 13.1103 138.72 14.0042C138.926 14.8771 139.132 15.7814 139.339 16.7167C139.566 17.6521 139.793 18.5979 140.02 19.5541C140.268 20.4895 140.516 21.3937 140.763 22.2667C141.031 21.3521 141.29 20.4167 141.537 19.4605C141.805 18.5044 142.053 17.569 142.28 16.6544C142.528 15.719 142.755 14.8252 142.962 13.9729C143.189 13.0999 143.385 12.2893 143.55 11.541H146.894C147.059 12.2893 147.245 13.0999 147.451 13.9729C147.658 14.8252 147.874 15.719 148.102 16.6544C148.329 17.569 148.566 18.5044 148.814 19.4605C149.061 20.4167 149.319 21.3521 149.588 22.2667C149.835 21.3937 150.083 20.4895 150.331 19.5541C150.579 18.5979 150.806 17.6521 151.012 16.7167C151.239 15.7814 151.445 14.8771 151.631 14.0042C151.838 13.1103 152.024 12.2893 152.188 11.541H156.988C156.534 13.1623 156.059 14.7733 155.563 16.3738C155.089 17.9536 154.614 19.4605 154.139 20.8948C153.685 22.3083 153.231 23.6178 152.777 24.8234C152.343 26.029 151.941 27.0683 151.569 27.9414H147.978C147.462 26.3616 146.956 24.7923 146.461 23.2333C145.965 21.6743 145.511 20.1049 145.098 18.5252ZM164.084 27.9414H159.471V11.541H164.084V27.9414ZM164.518 6.80168C164.518 7.65389 164.239 8.3295 163.681 8.82832C163.145 9.30643 162.505 9.54549 161.762 9.54549C161.019 9.54549 160.369 9.30643 159.811 8.82832C159.275 8.3295 159.006 7.65389 159.006 6.80168C159.006 5.94944 159.275 5.28428 159.811 4.80619C160.369 4.30732 161.019 4.05788 161.762 4.05788C162.505 4.05788 163.145 4.30732 163.681 4.80619C164.239 5.28428 164.518 5.94944 164.518 6.80168ZM172.353 19.6164C172.353 21.0507 172.673 22.2043 173.314 23.0774C173.953 23.9504 174.903 24.3869 176.162 24.3869C176.575 24.3869 176.957 24.3765 177.308 24.3557C177.659 24.3142 177.947 24.2726 178.174 24.231V15.7814C177.886 15.5943 177.504 15.4384 177.029 15.3137C176.575 15.189 176.111 15.1266 175.636 15.1266C173.447 15.1266 172.353 16.6232 172.353 19.6164ZM182.788 27.4113C182.376 27.5361 181.901 27.6607 181.364 27.7854C180.827 27.8894 180.26 27.9829 179.661 28.0661C179.083 28.1492 178.484 28.2116 177.865 28.2532C177.266 28.3155 176.688 28.3467 176.131 28.3467C174.789 28.3467 173.592 28.1492 172.539 27.7543C171.487 27.3593 170.599 26.7981 169.876 26.0706C169.154 25.3223 168.597 24.4285 168.204 23.3892C167.832 22.3291 167.647 21.1442 167.647 19.8347C167.647 18.5044 167.812 17.3092 168.143 16.2491C168.473 15.1682 168.948 14.2536 169.567 13.5053C170.186 12.7569 170.94 12.1853 171.827 11.7904C172.736 11.3955 173.767 11.198 174.923 11.198C175.563 11.198 176.131 11.2604 176.626 11.3851C177.142 11.5098 177.659 11.6865 178.174 11.9151V4.4944L182.788 3.74609V27.4113ZM186.954 7.45645L191.567 6.70814V11.541H197.109V15.4072H191.567V21.1754C191.567 22.1524 191.732 22.9319 192.062 23.5139C192.413 24.0959 193.105 24.3869 194.137 24.3869C194.632 24.3869 195.138 24.3453 195.654 24.2622C196.191 24.1583 196.676 24.0232 197.109 23.8569L197.759 27.4737C197.202 27.7023 196.583 27.8998 195.902 28.0661C195.221 28.2324 194.384 28.3155 193.394 28.3155C192.134 28.3155 191.092 28.1492 190.266 27.8167C189.44 27.4633 188.78 26.9852 188.285 26.3824C187.789 25.7588 187.438 25.0105 187.232 24.1375C187.046 23.2644 186.954 22.2979 186.954 21.2378V7.45645ZM200.867 27.9414V4.4944L205.48 3.74609V11.6033C205.79 11.4994 206.182 11.4059 206.657 11.3227C207.152 11.2188 207.627 11.1668 208.081 11.1668C209.402 11.1668 210.496 11.3539 211.363 11.728C212.251 12.0814 212.953 12.5907 213.468 13.2558C214.005 13.921 214.377 14.7109 214.583 15.6255C214.81 16.5401 214.924 17.5586 214.924 18.681V27.9414H210.31V19.2423C210.31 17.7457 210.114 16.6856 209.722 16.062C209.35 15.4384 208.648 15.1266 207.616 15.1266C207.204 15.1266 206.811 15.1682 206.44 15.2513C206.089 15.3137 205.769 15.3864 205.48 15.4696V27.9414H200.867Z" fill="#011640"/>
<path d="M64.2335 46.0041C63.7755 46.0041 63.382 45.9391 63.053 45.8092C62.724 45.6727 62.4498 45.4844 62.2305 45.244C62.0176 45.0037 61.8596 44.7211 61.7564 44.3963C61.6531 44.0716 61.6016 43.7143 61.6016 43.3245V39.1056H62.8304V43.2077C62.8304 43.513 62.8627 43.776 62.9272 43.9969C62.9981 44.2112 63.0949 44.3866 63.2175 44.523C63.3465 44.6594 63.4949 44.7601 63.6626 44.825C63.8368 44.8901 64.0302 44.9225 64.2431 44.9225C64.456 44.9225 64.6495 44.8901 64.8237 44.825C64.9979 44.7601 65.1465 44.6594 65.2691 44.523C65.3976 44.3866 65.4949 44.2112 65.5591 43.9969C65.6298 43.776 65.6655 43.513 65.6655 43.2077V39.1056H66.8944V43.3245C66.8944 43.7143 66.8399 44.0716 66.7302 44.3963C66.6264 44.7211 66.4655 45.0037 66.2462 45.244C66.0334 45.4844 65.7589 45.6727 65.4235 45.8092C65.0881 45.9391 64.6915 46.0041 64.2335 46.0041ZM68.3957 40.9277C68.6215 40.8626 68.9147 40.801 69.2761 40.7425C69.6369 40.684 70.0372 40.6548 70.4758 40.6548C70.8884 40.6548 71.2336 40.7133 71.5113 40.8302C71.7883 40.9407 72.0076 41.0997 72.1692 41.3076C72.3366 41.509 72.4527 41.7558 72.5176 42.0481C72.5883 42.334 72.624 42.649 72.624 42.9933V45.8579H71.4529V43.1784C71.4529 42.9056 71.4334 42.675 71.3951 42.4866C71.3627 42.2917 71.305 42.1359 71.2206 42.0189C71.1434 41.8955 71.0338 41.8078 70.8917 41.7558C70.7561 41.6973 70.5887 41.6681 70.3888 41.6681C70.2403 41.6681 70.0852 41.6779 69.9243 41.6973C69.7627 41.7169 69.6434 41.7331 69.5662 41.7461V45.8579H68.3957V40.9277ZM75.8168 45.9553C75.4684 45.9488 75.1777 45.9098 74.9454 45.8384C74.7203 45.767 74.5393 45.6663 74.4037 45.5363C74.2687 45.3999 74.1714 45.2343 74.1137 45.0394C74.0618 44.838 74.0365 44.6107 74.0365 44.3574V38.4918L75.2069 38.2969V44.1333C75.2069 44.2762 75.2166 44.3963 75.2361 44.4938C75.2621 44.5912 75.3036 44.6757 75.362 44.7471C75.4197 44.812 75.4976 44.864 75.5942 44.903C75.6974 44.9355 75.8265 44.9615 75.9809 44.9809L75.8168 45.9553ZM76.6473 43.3343C76.6473 42.8861 76.7121 42.4931 76.8413 42.1553C76.9769 41.8176 77.154 41.5383 77.3733 41.3174C77.5926 41.09 77.8443 40.9211 78.1278 40.8107C78.412 40.6938 78.702 40.6354 78.9985 40.6354C79.6954 40.6354 80.2371 40.8529 80.6245 41.2882C81.0176 41.7233 81.2149 42.373 81.2149 43.2369C81.2149 43.3018 81.2116 43.3765 81.2051 43.461C81.2051 43.5389 81.2019 43.6104 81.1954 43.6753H77.8573C77.8891 44.0846 78.0312 44.4029 78.2829 44.6302C78.5411 44.8511 78.9116 44.9615 79.3956 44.9615C79.6791 44.9615 79.9374 44.9355 80.1696 44.8835C80.4084 44.8316 80.5953 44.7764 80.7309 44.7179L80.8859 45.6825C80.8211 45.715 80.7309 45.7507 80.6147 45.7897C80.5051 45.8222 80.376 45.8514 80.2274 45.8774C80.086 45.9098 79.9309 45.9358 79.7635 45.9553C79.5955 45.9748 79.4248 45.9846 79.2503 45.9846C78.8052 45.9846 78.4185 45.9196 78.0896 45.7897C77.7606 45.6533 77.4894 45.4681 77.2766 45.2343C77.0638 44.9939 76.9055 44.7146 76.8023 44.3963C76.6992 44.0716 76.6473 43.7175 76.6473 43.3343ZM80.0438 42.8081C80.0438 42.6457 80.0211 42.4931 79.9763 42.3502C79.9309 42.2008 79.8634 42.0741 79.7732 41.9702C79.6889 41.8598 79.5825 41.7754 79.4534 41.7169C79.3307 41.6519 79.1828 41.6194 79.0083 41.6194C78.8279 41.6194 78.6696 41.6551 78.5346 41.7266C78.399 41.7916 78.2829 41.8792 78.1862 41.9897C78.0961 42.1001 78.0247 42.2268 77.9734 42.3697C77.9215 42.5126 77.8858 42.6587 77.867 42.8081H80.0438ZM84.2364 45.0297C84.5978 45.0297 84.8716 45.0102 85.0591 44.9712V43.6656C84.9942 43.6461 84.9008 43.6266 84.7781 43.6071C84.6555 43.5876 84.5206 43.5779 84.372 43.5779C84.2429 43.5779 84.1105 43.5876 83.9749 43.6071C83.8464 43.6266 83.7271 43.6623 83.6174 43.7143C83.5136 43.7663 83.4299 43.841 83.3657 43.9384C83.3008 44.0294 83.269 44.1462 83.269 44.2892C83.269 44.5685 83.356 44.7634 83.5298 44.8738C83.7044 44.9777 83.9399 45.0297 84.2364 45.0297ZM84.1397 40.6354C84.5264 40.6354 84.8528 40.684 85.1168 40.7815C85.3815 40.8789 85.5911 41.0153 85.7462 41.1907C85.9071 41.3661 86.02 41.5805 86.0848 41.8338C86.1556 42.0807 86.1912 42.3534 86.1912 42.6523V45.741C86.0102 45.78 85.7364 45.8254 85.3686 45.8774C85.0072 45.9358 84.5978 45.965 84.1397 45.965C83.8367 45.965 83.559 45.9358 83.3073 45.8774C83.0562 45.8189 82.8401 45.7248 82.6591 45.5948C82.4852 45.4649 82.3464 45.296 82.2432 45.0881C82.1466 44.8803 82.0979 44.6237 82.0979 44.3184C82.0979 44.0261 82.1531 43.7793 82.2627 43.5779C82.3788 43.3765 82.5333 43.2141 82.7273 43.0907C82.9206 42.9608 83.1431 42.8699 83.3949 42.8179C83.6525 42.7594 83.9204 42.7302 84.1975 42.7302C84.3266 42.7302 84.4622 42.7399 84.6043 42.7594C84.7457 42.7724 84.8975 42.7984 85.0591 42.8373V42.6425C85.0591 42.5061 85.0429 42.3762 85.0104 42.2527C84.978 42.1293 84.9202 42.0222 84.8365 41.9312C84.7587 41.8338 84.6523 41.7591 84.5173 41.7071C84.3882 41.6551 84.2234 41.6292 84.0236 41.6292C83.7524 41.6292 83.5045 41.6487 83.2787 41.6876C83.053 41.7266 82.8687 41.7721 82.7273 41.824L82.5819 40.8692C82.7299 40.8172 82.9466 40.7652 83.2301 40.7133C83.5136 40.6613 83.8173 40.6354 84.1397 40.6354ZM88.8922 45.0102C89.2017 45.0102 89.4275 44.9745 89.5696 44.903C89.7117 44.825 89.7824 44.6952 89.7824 44.5133C89.7824 44.3444 89.7052 44.2047 89.5501 44.0943C89.4022 43.9839 89.1537 43.8637 88.8053 43.7338C88.5925 43.6558 88.3959 43.5746 88.2149 43.4902C88.041 43.3993 87.8892 43.2953 87.7601 43.1784C87.631 43.0615 87.5278 42.9218 87.4506 42.7594C87.3799 42.5905 87.3442 42.3859 87.3442 42.1456C87.3442 41.6779 87.5148 41.3109 87.8567 41.0445C88.1987 40.7718 88.6632 40.6354 89.2504 40.6354C89.5469 40.6354 89.8311 40.6646 90.1016 40.723C90.3728 40.775 90.5759 40.827 90.7115 40.8789L90.4987 41.8338C90.3696 41.7754 90.2048 41.7233 90.005 41.6779C89.8051 41.6259 89.5728 41.5999 89.3081 41.5999C89.07 41.5999 88.876 41.6421 88.7281 41.7266C88.5795 41.8046 88.5056 41.928 88.5056 42.0969C88.5056 42.1813 88.5185 42.256 88.5438 42.321C88.5763 42.3859 88.6282 42.4476 88.6989 42.5061C88.7696 42.558 88.863 42.6133 88.9792 42.6717C89.0953 42.7237 89.2374 42.7789 89.4055 42.8373C89.6825 42.9413 89.918 43.0452 90.1114 43.1492C90.3054 43.2466 90.463 43.3603 90.5856 43.4902C90.7148 43.6136 90.8082 43.7565 90.8666 43.9189C90.9243 44.0813 90.9535 44.2762 90.9535 44.5035C90.9535 44.9907 90.7725 45.361 90.4118 45.6143C90.0569 45.8611 89.5469 45.9846 88.8825 45.9846C88.4374 45.9846 88.0793 45.9456 87.8087 45.8676C87.5375 45.7962 87.3474 45.7377 87.2378 45.6922L87.4409 44.7082C87.6154 44.7796 87.8217 44.8478 88.0605 44.9128C88.3051 44.9777 88.5828 45.0102 88.8922 45.0102ZM92.0468 45.8579V38.4918L93.2179 38.2969V40.8204C93.347 40.775 93.4956 40.736 93.6629 40.7036C93.8375 40.671 94.0081 40.6548 94.1762 40.6548C94.5823 40.6548 94.9177 40.7133 95.1825 40.8302C95.453 40.9407 95.6691 41.0997 95.8306 41.3076C95.9915 41.509 96.1044 41.7526 96.1693 42.0384C96.24 42.3242 96.2757 42.6425 96.2757 42.9933V45.8579H95.1046V43.1784C95.1046 42.9056 95.0851 42.675 95.0469 42.4866C95.0144 42.2917 94.9567 42.1359 94.8723 42.0189C94.7951 41.8955 94.6887 41.8078 94.5531 41.7558C94.4175 41.6973 94.2501 41.6681 94.0503 41.6681C93.8952 41.6681 93.7369 41.6844 93.576 41.7169C93.4144 41.7493 93.2951 41.7786 93.2179 41.8046V45.8579H92.0468ZM102.25 42.0969C102.54 41.6097 102.824 41.116 103.101 40.6158C103.379 40.1157 103.631 39.6122 103.856 39.1056H105.21C104.85 39.7941 104.472 40.4794 104.079 41.1615C103.692 41.837 103.276 42.5191 102.831 43.2077V45.8579H101.612V43.2271C101.166 42.5321 100.747 41.8436 100.353 41.1615C99.9596 40.4794 99.5827 39.7941 99.2213 39.1056H100.653C100.879 39.6122 101.127 40.1157 101.398 40.6158C101.669 41.116 101.953 41.6097 102.25 42.0969ZM110.07 43.3051C110.07 43.7078 110.012 44.0748 109.896 44.4061C109.78 44.7374 109.615 45.0199 109.402 45.2538C109.19 45.4877 108.932 45.6695 108.628 45.7994C108.332 45.9293 108.003 45.9943 107.642 45.9943C107.28 45.9943 106.951 45.9293 106.655 45.7994C106.358 45.6695 106.103 45.4877 105.89 45.2538C105.678 45.0199 105.51 44.7374 105.387 44.4061C105.271 44.0748 105.213 43.7078 105.213 43.3051C105.213 42.9024 105.271 42.5386 105.387 42.2138C105.51 41.8825 105.678 41.5999 105.89 41.3661C106.11 41.1323 106.367 40.9536 106.664 40.8302C106.961 40.7003 107.287 40.6354 107.642 40.6354C107.996 40.6354 108.322 40.7003 108.619 40.8302C108.922 40.9536 109.18 41.1323 109.393 41.3661C109.606 41.5999 109.77 41.8825 109.886 42.2138C110.009 42.5386 110.07 42.9024 110.07 43.3051ZM108.87 43.3051C108.87 42.7984 108.761 42.3989 108.541 42.1066C108.329 41.8078 108.029 41.6584 107.642 41.6584C107.255 41.6584 106.951 41.8078 106.732 42.1066C106.519 42.3989 106.413 42.7984 106.413 43.3051C106.413 43.8183 106.519 44.2242 106.732 44.523C106.951 44.8218 107.255 44.9712 107.642 44.9712C108.029 44.9712 108.329 44.8218 108.541 44.523C108.761 44.2242 108.87 43.8183 108.87 43.3051ZM115.427 45.702C115.201 45.7604 114.908 45.8189 114.547 45.8774C114.185 45.9423 113.789 45.9748 113.357 45.9748C112.951 45.9748 112.609 45.9164 112.331 45.7994C112.06 45.6825 111.841 45.5201 111.673 45.3122C111.512 45.1044 111.396 44.8575 111.325 44.5718C111.254 44.2794 111.218 43.9611 111.218 43.6168V40.762H112.39V43.4317C112.39 43.9773 112.467 44.3671 112.621 44.601C112.783 44.8348 113.06 44.9517 113.454 44.9517C113.596 44.9517 113.744 44.9453 113.899 44.9323C114.06 44.9193 114.18 44.903 114.257 44.8835V40.762H115.427V45.702ZM119.801 41.824C119.704 41.7916 119.569 41.7591 119.395 41.7266C119.227 41.6876 119.03 41.6681 118.804 41.6681C118.676 41.6681 118.537 41.6811 118.388 41.7071C118.246 41.7331 118.146 41.7558 118.089 41.7754V45.8579H116.918V41.0056C117.143 40.9211 117.424 40.8432 117.76 40.7718C118.102 40.6938 118.479 40.6548 118.892 40.6548C118.969 40.6548 119.059 40.6613 119.162 40.6743C119.266 40.6808 119.369 40.6938 119.472 40.7133C119.576 40.7263 119.676 40.7458 119.772 40.7718C119.869 40.7912 119.946 40.8107 120.005 40.8302L119.801 41.824ZM124.356 44.8446C124.427 44.8511 124.52 44.8575 124.636 44.8641C124.753 44.8641 124.911 44.8641 125.111 44.8641C125.93 44.8641 126.539 44.6562 126.94 44.2404C127.346 43.8183 127.549 43.2304 127.549 42.4768C127.549 41.7103 127.352 41.1225 126.959 40.7133C126.565 40.304 125.955 40.0994 125.13 40.0994C124.769 40.0994 124.511 40.1092 124.356 40.1287V44.8446ZM128.826 42.4768C128.826 43.0615 128.736 43.5714 128.555 44.0066C128.375 44.4353 128.117 44.7958 127.781 45.0881C127.452 45.374 127.053 45.5883 126.582 45.7312C126.117 45.8676 125.601 45.9358 125.034 45.9358C124.762 45.9358 124.456 45.9228 124.114 45.8968C123.772 45.8774 123.447 45.8319 123.137 45.7604V39.203C123.447 39.1316 123.775 39.0861 124.124 39.0666C124.472 39.0471 124.782 39.0374 125.052 39.0374C125.614 39.0374 126.127 39.1056 126.591 39.242C127.056 39.3719 127.452 39.5798 127.781 39.8656C128.117 40.1449 128.375 40.5021 128.555 40.9374C128.736 41.3661 128.826 41.8792 128.826 42.4768ZM131.28 45.8579H130.109V40.762H131.28V45.8579ZM131.405 39.2713C131.405 39.4921 131.335 39.6674 131.193 39.7974C131.051 39.9273 130.883 39.9923 130.69 39.9923C130.49 39.9923 130.319 39.9273 130.177 39.7974C130.035 39.6674 129.964 39.4921 129.964 39.2713C129.964 39.0439 130.035 38.8652 130.177 38.7353C130.319 38.6054 130.49 38.5404 130.69 38.5404C130.883 38.5404 131.051 38.6054 131.193 38.7353C131.335 38.8652 131.405 39.0439 131.405 39.2713ZM133.693 43.1784C133.693 43.6786 133.8 44.0456 134.012 44.2794C134.232 44.5067 134.512 44.6204 134.854 44.6204C135.041 44.6204 135.215 44.5945 135.377 44.5425C135.544 44.4905 135.68 44.4288 135.783 44.3574V41.7169C135.699 41.6973 135.596 41.6811 135.474 41.6681C135.351 41.6487 135.196 41.6389 135.009 41.6389C134.583 41.6389 134.258 41.7818 134.032 42.0677C133.806 42.347 133.693 42.7172 133.693 43.1784ZM136.953 45.3415C136.953 46.1535 136.747 46.7478 136.334 47.1245C135.928 47.5013 135.302 47.6897 134.457 47.6897C134.148 47.6897 133.844 47.6637 133.548 47.6117C133.257 47.5598 132.993 47.4916 132.754 47.4071L132.967 46.4035C133.167 46.488 133.393 46.5562 133.645 46.6081C133.903 46.6601 134.18 46.6861 134.477 46.6861C134.947 46.6861 135.283 46.5887 135.483 46.3938C135.683 46.1989 135.783 45.9098 135.783 45.5266V45.3317C135.667 45.3902 135.512 45.4487 135.318 45.5071C135.132 45.5656 134.916 45.5948 134.67 45.5948C134.348 45.5948 134.051 45.5429 133.78 45.4389C133.515 45.335 133.286 45.1824 133.093 44.9809C132.906 44.7796 132.758 44.5295 132.648 44.2307C132.545 43.9254 132.493 43.5746 132.493 43.1784C132.493 42.8081 132.548 42.4671 132.658 42.1553C132.774 41.8436 132.938 41.5772 133.151 41.3564C133.37 41.1355 133.635 40.9634 133.944 40.8399C134.254 40.7165 134.605 40.6548 134.999 40.6548C135.38 40.6548 135.741 40.684 136.083 40.7425C136.425 40.801 136.715 40.8626 136.953 40.9277V45.3415ZM139.624 45.8579H138.453V40.762H139.624V45.8579ZM139.75 39.2713C139.75 39.4921 139.678 39.6674 139.536 39.7974C139.395 39.9273 139.227 39.9923 139.034 39.9923C138.834 39.9923 138.662 39.9273 138.521 39.7974C138.379 39.6674 138.308 39.4921 138.308 39.2713C138.308 39.0439 138.379 38.8652 138.521 38.7353C138.662 38.6054 138.834 38.5404 139.034 38.5404C139.227 38.5404 139.395 38.6054 139.536 38.7353C139.678 38.8652 139.75 39.0439 139.75 39.2713ZM141.059 39.4174L142.23 39.2225V40.762H144.03V41.7461H142.23V43.8215C142.23 44.2307 142.294 44.523 142.424 44.6984C142.553 44.8738 142.772 44.9615 143.081 44.9615C143.294 44.9615 143.482 44.9387 143.643 44.8933C143.811 44.8478 143.943 44.8056 144.04 44.7666L144.233 45.702C144.097 45.7604 143.92 45.8189 143.701 45.8774C143.482 45.9423 143.224 45.9748 142.927 45.9748C142.566 45.9748 142.263 45.9261 142.017 45.8286C141.779 45.7312 141.589 45.5915 141.446 45.4097C141.304 45.2213 141.204 44.9972 141.147 44.7374C141.088 44.4711 141.059 44.169 141.059 43.8312V39.4174ZM146.942 45.0297C147.303 45.0297 147.578 45.0102 147.765 44.9712V43.6656C147.7 43.6461 147.607 43.6266 147.484 43.6071C147.362 43.5876 147.226 43.5779 147.077 43.5779C146.948 43.5779 146.817 43.5876 146.681 43.6071C146.552 43.6266 146.433 43.6623 146.323 43.7143C146.22 43.7663 146.136 43.841 146.071 43.9384C146.007 44.0294 145.975 44.1462 145.975 44.2892C145.975 44.5685 146.061 44.7634 146.236 44.8738C146.41 44.9777 146.645 45.0297 146.942 45.0297ZM146.845 40.6354C147.233 40.6354 147.558 40.684 147.823 40.7815C148.087 40.8789 148.297 41.0153 148.452 41.1907C148.613 41.3661 148.726 41.5805 148.79 41.8338C148.861 42.0807 148.897 42.3534 148.897 42.6523V45.741C148.716 45.78 148.442 45.8254 148.074 45.8774C147.713 45.9358 147.303 45.965 146.845 45.965C146.542 45.965 146.265 45.9358 146.013 45.8774C145.762 45.8189 145.546 45.7248 145.365 45.5948C145.191 45.4649 145.052 45.296 144.949 45.0881C144.852 44.8803 144.804 44.6237 144.804 44.3184C144.804 44.0261 144.859 43.7793 144.968 43.5779C145.084 43.3765 145.239 43.2141 145.433 43.0907C145.626 42.9608 145.849 42.8699 146.1 42.8179C146.359 42.7594 146.626 42.7302 146.904 42.7302C147.033 42.7302 147.168 42.7399 147.31 42.7594C147.452 42.7724 147.604 42.7984 147.765 42.8373V42.6425C147.765 42.5061 147.748 42.3762 147.717 42.2527C147.684 42.1293 147.626 42.0222 147.542 41.9312C147.465 41.8338 147.358 41.7591 147.223 41.7071C147.094 41.6551 146.93 41.6292 146.729 41.6292C146.459 41.6292 146.21 41.6487 145.984 41.6876C145.758 41.7266 145.575 41.7721 145.433 41.824L145.287 40.8692C145.436 40.8172 145.652 40.7652 145.936 40.7133C146.22 40.6613 146.523 40.6354 146.845 40.6354ZM152.091 45.9553C151.743 45.9488 151.453 45.9098 151.221 45.8384C150.995 45.767 150.815 45.6663 150.679 45.5363C150.543 45.3999 150.447 45.2343 150.388 45.0394C150.337 44.838 150.311 44.6107 150.311 44.3574V38.4918L151.482 38.2969V44.1333C151.482 44.2762 151.492 44.3963 151.511 44.4938C151.537 44.5912 151.579 44.6757 151.637 44.7471C151.695 44.812 151.772 44.864 151.869 44.903C151.972 44.9355 152.101 44.9615 152.256 44.9809L152.091 45.9553ZM157.416 39.0374C158.39 39.0374 159.135 39.216 159.651 39.5733C160.174 39.9305 160.435 40.4892 160.435 41.2492C160.435 41.6454 160.364 41.9864 160.222 42.2723C160.087 42.5516 159.887 42.7821 159.622 42.964C159.357 43.1394 159.035 43.2693 158.655 43.3538C158.274 43.4382 157.839 43.4804 157.348 43.4804H156.739V45.8579H155.52V39.203C155.803 39.138 156.116 39.0958 156.458 39.0764C156.806 39.0504 157.126 39.0374 157.416 39.0374ZM157.503 40.0994C157.194 40.0994 156.939 40.1092 156.739 40.1287V42.4282H157.329C157.916 42.4282 158.367 42.347 158.683 42.1845C159 42.0156 159.158 41.7006 159.158 41.2394C159.158 41.0186 159.116 40.8334 159.032 40.684C158.948 40.5347 158.832 40.4177 158.683 40.3333C158.535 40.2488 158.358 40.1904 158.151 40.1579C157.952 40.1189 157.735 40.0994 157.503 40.0994ZM165.897 43.3051C165.897 43.7078 165.839 44.0748 165.723 44.4061C165.607 44.7374 165.442 45.0199 165.229 45.2538C165.016 45.4877 164.758 45.6695 164.455 45.7994C164.159 45.9293 163.83 45.9943 163.468 45.9943C163.107 45.9943 162.778 45.9293 162.482 45.7994C162.184 45.6695 161.93 45.4877 161.717 45.2538C161.504 45.0199 161.336 44.7374 161.214 44.4061C161.098 44.0748 161.039 43.7078 161.039 43.3051C161.039 42.9024 161.098 42.5386 161.214 42.2138C161.336 41.8825 161.504 41.5999 161.717 41.3661C161.936 41.1323 162.194 40.9536 162.491 40.8302C162.788 40.7003 163.113 40.6354 163.468 40.6354C163.823 40.6354 164.149 40.7003 164.445 40.8302C164.748 40.9536 165.007 41.1323 165.22 41.3661C165.432 41.5999 165.597 41.8825 165.713 42.2138C165.836 42.5386 165.897 42.9024 165.897 43.3051ZM164.697 43.3051C164.697 42.7984 164.588 42.3989 164.368 42.1066C164.155 41.8078 163.855 41.6584 163.468 41.6584C163.081 41.6584 162.778 41.8078 162.559 42.1066C162.346 42.3989 162.24 42.7984 162.24 43.3051C162.24 43.8183 162.346 44.2242 162.559 44.523C162.778 44.8218 163.081 44.9712 163.468 44.9712C163.855 44.9712 164.155 44.8218 164.368 44.523C164.588 44.2242 164.697 43.8183 164.697 43.3051ZM167.045 39.4174L168.216 39.2225V40.762H170.015V41.7461H168.216V43.8215C168.216 44.2307 168.281 44.523 168.41 44.6984C168.538 44.8738 168.757 44.9615 169.068 44.9615C169.28 44.9615 169.467 44.9387 169.629 44.8933C169.796 44.8478 169.929 44.8056 170.025 44.7666L170.219 45.702C170.084 45.7604 169.906 45.8189 169.687 45.8774C169.467 45.9423 169.209 45.9748 168.913 45.9748C168.551 45.9748 168.248 45.9261 168.003 45.8286C167.764 45.7312 167.574 45.5915 167.432 45.4097C167.29 45.2213 167.19 44.9972 167.132 44.7374C167.074 44.4711 167.045 44.169 167.045 43.8312V39.4174ZM170.782 43.3343C170.782 42.8861 170.846 42.4931 170.975 42.1553C171.111 41.8176 171.288 41.5383 171.508 41.3174C171.727 41.09 171.978 40.9211 172.262 40.8107C172.546 40.6938 172.837 40.6354 173.133 40.6354C173.83 40.6354 174.372 40.8529 174.759 41.2882C175.152 41.7233 175.349 42.373 175.349 43.2369C175.349 43.3018 175.345 43.3765 175.339 43.461C175.339 43.5389 175.336 43.6104 175.329 43.6753H171.991C172.024 44.0846 172.166 44.4029 172.417 44.6302C172.675 44.8511 173.046 44.9615 173.53 44.9615C173.814 44.9615 174.072 44.9355 174.304 44.8835C174.542 44.8316 174.73 44.7764 174.865 44.7179L175.02 45.6825C174.956 45.715 174.865 45.7507 174.749 45.7897C174.64 45.8222 174.51 45.8514 174.362 45.8774C174.22 45.9098 174.065 45.9358 173.897 45.9553C173.73 45.9748 173.559 45.9846 173.385 45.9846C172.94 45.9846 172.552 45.9196 172.223 45.7897C171.894 45.6533 171.624 45.4681 171.41 45.2343C171.198 44.9939 171.04 44.7146 170.937 44.3963C170.834 44.0716 170.782 43.7175 170.782 43.3343ZM174.178 42.8081C174.178 42.6457 174.156 42.4931 174.11 42.3502C174.065 42.2008 173.997 42.0741 173.907 41.9702C173.823 41.8598 173.717 41.7754 173.588 41.7169C173.465 41.6519 173.317 41.6194 173.143 41.6194C172.962 41.6194 172.804 41.6551 172.668 41.7266C172.533 41.7916 172.417 41.8792 172.32 41.9897C172.23 42.1001 172.159 42.2268 172.107 42.3697C172.056 42.5126 172.02 42.6587 172.001 42.8081H174.178ZM176.591 40.9277C176.816 40.8626 177.11 40.801 177.471 40.7425C177.832 40.684 178.232 40.6548 178.671 40.6548C179.083 40.6548 179.428 40.7133 179.706 40.8302C179.983 40.9407 180.202 41.0997 180.364 41.3076C180.531 41.509 180.648 41.7558 180.712 42.0481C180.783 42.334 180.819 42.649 180.819 42.9933V45.8579H179.648V43.1784C179.648 42.9056 179.628 42.675 179.59 42.4866C179.558 42.2917 179.5 42.1359 179.415 42.0189C179.338 41.8955 179.229 41.8078 179.087 41.7558C178.951 41.6973 178.784 41.6681 178.584 41.6681C178.435 41.6681 178.28 41.6779 178.119 41.6973C177.958 41.7169 177.838 41.7331 177.761 41.7461V45.8579H176.591V40.9277ZM182.192 39.4174L183.363 39.2225V40.762H185.163V41.7461H183.363V43.8215C183.363 44.2307 183.428 44.523 183.557 44.6984C183.686 44.8738 183.905 44.9615 184.215 44.9615C184.427 44.9615 184.614 44.9387 184.776 44.8933C184.943 44.8478 185.076 44.8056 185.172 44.7666L185.366 45.702C185.231 45.7604 185.053 45.8189 184.834 45.8774C184.614 45.9423 184.357 45.9748 184.06 45.9748C183.699 45.9748 183.395 45.9261 183.15 45.8286C182.912 45.7312 182.721 45.5915 182.58 45.4097C182.438 45.2213 182.338 44.9972 182.279 44.7374C182.222 44.4711 182.192 44.169 182.192 43.8312V39.4174ZM187.475 45.8579H186.305V40.762H187.475V45.8579ZM187.601 39.2713C187.601 39.4921 187.53 39.6674 187.388 39.7974C187.246 39.9273 187.079 39.9923 186.885 39.9923C186.685 39.9923 186.514 39.9273 186.372 39.7974C186.23 39.6674 186.159 39.4921 186.159 39.2713C186.159 39.0439 186.23 38.8652 186.372 38.7353C186.514 38.6054 186.685 38.5404 186.885 38.5404C187.079 38.5404 187.246 38.6054 187.388 38.7353C187.53 38.8652 187.601 39.0439 187.601 39.2713ZM190.749 45.0297C191.11 45.0297 191.385 45.0102 191.572 44.9712V43.6656C191.507 43.6461 191.414 43.6266 191.291 43.6071C191.169 43.5876 191.033 43.5779 190.884 43.5779C190.756 43.5779 190.624 43.5876 190.488 43.6071C190.359 43.6266 190.24 43.6623 190.13 43.7143C190.027 43.7663 189.943 43.841 189.878 43.9384C189.814 44.0294 189.781 44.1462 189.781 44.2892C189.781 44.5685 189.869 44.7634 190.043 44.8738C190.217 44.9777 190.452 45.0297 190.749 45.0297ZM190.653 40.6354C191.04 40.6354 191.365 40.684 191.63 40.7815C191.894 40.8789 192.104 41.0153 192.259 41.1907C192.42 41.3661 192.533 41.5805 192.597 41.8338C192.669 42.0807 192.704 42.3534 192.704 42.6523V45.741C192.523 45.78 192.249 45.8254 191.882 45.8774C191.52 45.9358 191.11 45.965 190.653 45.965C190.349 45.965 190.072 45.9358 189.82 45.8774C189.569 45.8189 189.353 45.7248 189.172 45.5948C188.998 45.4649 188.86 45.296 188.756 45.0881C188.659 44.8803 188.611 44.6237 188.611 44.3184C188.611 44.0261 188.666 43.7793 188.775 43.5779C188.891 43.3765 189.046 43.2141 189.24 43.0907C189.433 42.9608 189.656 42.8699 189.907 42.8179C190.166 42.7594 190.433 42.7302 190.711 42.7302C190.84 42.7302 190.975 42.7399 191.117 42.7594C191.259 42.7724 191.411 42.7984 191.572 42.8373V42.6425C191.572 42.5061 191.555 42.3762 191.524 42.2527C191.491 42.1293 191.433 42.0222 191.349 41.9312C191.272 41.8338 191.165 41.7591 191.03 41.7071C190.901 41.6551 190.737 41.6292 190.537 41.6292C190.265 41.6292 190.017 41.6487 189.791 41.6876C189.565 41.7266 189.382 41.7721 189.24 41.824L189.094 40.8692C189.243 40.8172 189.459 40.7652 189.743 40.7133C190.027 40.6613 190.33 40.6354 190.653 40.6354ZM195.898 45.9553C195.55 45.9488 195.26 45.9098 195.028 45.8384C194.802 45.767 194.622 45.6663 194.486 45.5363C194.35 45.3999 194.254 45.2343 194.196 45.0394C194.144 44.838 194.118 44.6107 194.118 44.3574V38.4918L195.289 38.2969V44.1333C195.289 44.2762 195.299 44.3963 195.318 44.4938C195.344 44.5912 195.386 44.6757 195.444 44.7471C195.502 44.812 195.579 44.864 195.676 44.903C195.779 44.9355 195.908 44.9615 196.063 44.9809L195.898 45.9553Z" fill="#011640"/>
<path d="M9.01672 21.5004C8.52674 18.4322 9.0731 15.2871 10.5683 12.5688C12.0635 9.85039 14.421 7.71595 17.2634 6.50723C20.1058 5.29847 23.2687 5.0853 26.2455 5.90181C29.2225 6.71832 31.8413 8.51726 33.6827 11.0107C35.5242 13.5042 36.4817 16.5478 36.4019 19.6544C36.3222 22.761 35.2099 25.7508 33.243 28.1451C31.2761 30.5394 28.5685 32.1998 25.5536 32.8603C22.5388 33.5209 19.3911 33.1434 16.6145 31.7884" stroke="#011640" stroke-width="2.29584" stroke-linecap="round"/>
<path d="M37.1212 21.4922C40.0259 22.5756 42.4837 24.613 44.0979 27.2758C45.7122 29.9385 46.3888 33.0713 46.0186 36.1689C45.6485 39.2665 44.2531 42.1482 42.0577 44.3491C39.8623 46.5499 36.9947 47.9418 33.9178 48.3C30.8408 48.6583 27.7336 47.9621 25.0976 46.3238C22.4615 44.6855 20.4502 42.2005 19.3882 39.2697C18.3261 36.3389 18.2752 33.1332 19.2438 30.1697C20.2123 27.2062 22.1437 24.6578 24.7264 22.9354" stroke="#011640" stroke-width="2.29584" stroke-linecap="round"/>
<path d="M21.7148 5.44447C24.4823 5.25969 27.2407 5.92019 29.6295 7.33963C32.0183 8.75907 33.9263 10.8714 35.1042 13.4005C36.282 15.9297 36.6749 18.7579 36.2314 21.5156C35.7878 24.2732 34.5286 26.832 32.6182 28.8572" stroke="#011640" stroke-width="2.29584" stroke-linecap="round"/>
<path d="M23.2731 45.3537C20.8747 47.3367 17.8822 48.4465 14.7798 48.5034C11.6774 48.5605 8.64671 47.5613 6.17812 45.6678C3.70955 43.7743 1.94757 41.0971 1.17739 38.0695C0.407212 35.042 0.673909 31.8412 1.93432 28.9853C3.19472 26.1294 5.37507 23.7854 8.12247 22.3328C10.8698 20.8802 14.0235 20.4038 17.073 20.9809C20.1226 21.5579 22.8896 23.1545 24.9263 25.5123C26.963 27.8702 28.1502 30.8514 28.2956 33.9732" stroke="#011640" stroke-width="2.29584" stroke-linecap="square"/>
<path d="M31.5725 29.9609C30.0869 31.1772 28.366 32.0683 26.5195 32.5777" stroke="#011640" stroke-width="2.29584" stroke-linecap="round"/>
<path d="M34.9745 48.1388C32.3065 48.6635 29.544 48.3818 27.0345 47.3292C24.525 46.2765 22.3806 44.4998 20.8711 42.2227" stroke="#011640" stroke-width="2.29584" stroke-linecap="round"/>
<path d="M27.3721 19.1578C27.3721 21.2645 25.6766 22.9719 23.5854 22.9719C21.4943 22.9719 19.7988 21.2645 19.7988 19.1578C19.7988 17.0512 21.4943 15.3438 23.5854 15.3438C25.6766 15.3438 27.3721 17.0512 27.3721 19.1578Z" fill="white" stroke="#011640" stroke-width="2.29584"/>
<path d="M35.8798 34.5015C35.8798 36.6081 34.1843 38.3156 32.0932 38.3156C30.0021 38.3156 28.3066 36.6081 28.3066 34.5015C28.3066 32.3949 30.0021 30.6875 32.0932 30.6875C34.1843 30.6875 35.8798 32.3949 35.8798 34.5015Z" fill="white" stroke="#011640" stroke-width="2.29584"/>
<path d="M18.249 35.0328C18.249 37.1394 16.5535 38.8468 14.4624 38.8468C12.3712 38.8468 10.6758 37.1394 10.6758 35.0328C10.6758 32.9262 12.3712 31.2188 14.4624 31.2188C16.5535 31.2188 18.249 32.9262 18.249 35.0328Z" fill="white" stroke="#011640" stroke-width="2.29584"/>
</g>
<defs>
<clipPath id="clip0_145_3883">
<rect width="218" height="49" fill="white" transform="translate(0 0.5)"/>
</clipPath>
</defs>
</svg>
