<svg width="336" height="75" viewBox="0 0 336 75" fill="none" xmlns="http://www.w3.org/2000/svg">
<path d="M104.978 42.4354C103.164 42.4354 101.351 42.3717 99.5373 42.2445C97.7556 42.149 95.8944 41.8945 93.9536 41.4809V9.41058C95.4808 9.12424 97.1511 8.91744 98.9646 8.79017C100.778 8.63109 102.464 8.55155 104.023 8.55155C106.123 8.55155 108.048 8.71063 109.798 9.02879C111.58 9.31513 113.107 9.82419 114.379 10.5559C115.652 11.2877 116.638 12.2581 117.338 13.4671C118.07 14.6443 118.436 16.1078 118.436 17.8577C118.436 20.4984 117.163 22.5823 114.618 24.1095C116.718 24.9049 118.15 25.9866 118.913 27.3547C119.677 28.7228 120.058 30.2658 120.058 31.9839C120.058 35.4518 118.786 38.0607 116.241 39.8106C113.727 41.5604 109.973 42.4354 104.978 42.4354ZM101.208 27.5933V36.1358C101.749 36.1995 102.337 36.2472 102.973 36.279C103.61 36.3108 104.31 36.3267 105.073 36.3267C107.3 36.3267 109.098 36.0086 110.466 35.3723C111.834 34.736 112.518 33.5588 112.518 31.8407C112.518 30.3136 111.945 29.2318 110.8 28.5955C109.655 27.9274 108.016 27.5933 105.885 27.5933H101.208ZM101.208 21.9142H104.835C107.125 21.9142 108.764 21.6278 109.75 21.0552C110.736 20.4507 111.23 19.4962 111.23 18.1917C111.23 16.8555 110.721 15.9169 109.702 15.376C108.684 14.8352 107.189 14.5647 105.216 14.5647C104.58 14.5647 103.896 14.5806 103.164 14.6125C102.433 14.6125 101.78 14.6443 101.208 14.7079V21.9142ZM135.133 37.0426C135.833 37.0426 136.501 37.0267 137.138 36.9949C137.774 36.9631 138.283 36.9153 138.665 36.8517V31.4589C138.378 31.3953 137.949 31.3317 137.376 31.268C136.804 31.2044 136.279 31.1726 135.801 31.1726C135.133 31.1726 134.497 31.2203 133.892 31.3158C133.32 31.3794 132.811 31.5226 132.365 31.7453C131.92 31.968 131.57 32.2702 131.315 32.652C131.061 33.0338 130.934 33.511 130.934 34.0837C130.934 35.1973 131.299 35.9768 132.031 36.4222C132.795 36.8358 133.829 37.0426 135.133 37.0426ZM134.561 16.2351C136.66 16.2351 138.41 16.4737 139.81 16.9509C141.21 17.4282 142.324 18.1122 143.151 19.003C144.01 19.8939 144.614 20.9756 144.964 22.2483C145.314 23.5209 145.489 24.9367 145.489 26.4957V41.29C144.471 41.5127 143.055 41.7672 141.242 42.0536C139.428 42.3717 137.233 42.5308 134.656 42.5308C133.033 42.5308 131.554 42.3876 130.218 42.1013C128.913 41.815 127.784 41.3536 126.829 40.7173C125.875 40.0492 125.143 39.1902 124.634 38.1402C124.125 37.0903 123.87 35.8018 123.87 34.2746C123.87 32.8111 124.157 31.5703 124.729 30.5522C125.334 29.5341 126.129 28.7228 127.116 28.1183C128.102 27.5138 129.231 27.0843 130.504 26.8297C131.777 26.5434 133.097 26.4002 134.465 26.4002C135.388 26.4002 136.199 26.4479 136.899 26.5434C137.631 26.607 138.219 26.7025 138.665 26.8297V26.1616C138.665 24.9526 138.299 23.9822 137.567 23.2505C136.835 22.5187 135.563 22.1528 133.749 22.1528C132.54 22.1528 131.347 22.2483 130.17 22.4391C128.993 22.5982 127.975 22.8368 127.116 23.155L126.209 17.4282C126.622 17.3009 127.132 17.1736 127.736 17.0464C128.372 16.8873 129.056 16.76 129.788 16.6646C130.52 16.5373 131.284 16.4419 132.079 16.3782C132.906 16.2828 133.733 16.2351 134.561 16.2351ZM151.919 17.7622C153.128 17.4123 154.687 17.0941 156.596 16.8078C158.505 16.4896 160.51 16.3305 162.609 16.3305C164.741 16.3305 166.507 16.6169 167.907 17.1895C169.338 17.7304 170.468 18.5099 171.295 19.528C172.122 20.5461 172.711 21.7551 173.061 23.155C173.411 24.5549 173.586 26.1139 173.586 27.8319V42.0059H166.475V28.691C166.475 26.4002 166.173 24.7776 165.568 23.8231C164.964 22.8687 163.834 22.3914 162.18 22.3914C161.671 22.3914 161.13 22.4232 160.557 22.4869C159.985 22.5187 159.476 22.5664 159.03 22.63V42.0059H151.919V17.7622ZM186.083 29.2636C186.083 31.4589 186.576 33.2247 187.563 34.561C188.549 35.8972 190.012 36.5654 191.953 36.5654C192.589 36.5654 193.178 36.5495 193.719 36.5176C194.26 36.454 194.705 36.3904 195.055 36.3267V23.3936C194.61 23.1073 194.021 22.8687 193.289 22.6778C192.589 22.4869 191.874 22.3914 191.142 22.3914C187.769 22.3914 186.083 24.6822 186.083 29.2636ZM202.166 41.1946C201.53 41.3855 200.798 41.5763 199.971 41.7672C199.143 41.9263 198.269 42.0695 197.346 42.1968C196.455 42.324 195.532 42.4195 194.578 42.4831C193.655 42.5785 192.764 42.6263 191.905 42.6263C189.837 42.6263 187.992 42.324 186.369 41.7195C184.747 41.115 183.379 40.256 182.265 39.1424C181.152 37.9971 180.293 36.629 179.688 35.0382C179.115 33.4156 178.829 31.6021 178.829 29.5977C178.829 27.5615 179.084 25.7321 179.593 24.1095C180.102 22.4551 180.833 21.0552 181.788 19.9098C182.742 18.7644 183.904 17.8895 185.272 17.285C186.672 16.6805 188.262 16.3782 190.044 16.3782C191.03 16.3782 191.905 16.4737 192.669 16.6646C193.464 16.8555 194.26 17.1259 195.055 17.4759V6.11765L202.166 4.97228V41.1946ZM223.63 27.5933C222.993 30.0113 222.309 32.4134 221.578 34.7996C220.878 37.1858 220.13 39.5879 219.335 42.0059H213.799C213.226 40.6696 212.606 39.0788 211.937 37.2335C211.269 35.3882 210.569 33.3838 209.838 31.2203C209.138 29.025 208.406 26.7184 207.642 24.3004C206.911 21.8506 206.195 19.3848 205.495 16.9032H212.987C213.242 18.0486 213.512 19.3053 213.799 20.6734C214.117 22.0096 214.435 23.3936 214.753 24.8253C215.103 26.257 215.453 27.7047 215.803 29.1682C216.185 30.5999 216.567 31.9839 216.948 33.3201C217.362 31.9203 217.76 30.4885 218.141 29.025C218.555 27.5615 218.937 26.1298 219.287 24.7299C219.669 23.2982 220.019 21.9301 220.337 20.6256C220.687 19.2894 220.989 18.0486 221.244 16.9032H226.398C226.652 18.0486 226.939 19.2894 227.257 20.6256C227.575 21.9301 227.909 23.2982 228.259 24.7299C228.609 26.1298 228.975 27.5615 229.357 29.025C229.738 30.4885 230.136 31.9203 230.55 33.3201C230.931 31.9839 231.313 30.5999 231.695 29.1682C232.077 27.7047 232.427 26.257 232.745 24.8253C233.095 23.3936 233.413 22.0096 233.699 20.6734C234.018 19.3053 234.304 18.0486 234.558 16.9032H241.956C241.256 19.3848 240.524 21.8506 239.76 24.3004C239.029 26.7184 238.297 29.025 237.565 31.2203C236.865 33.3838 236.165 35.3882 235.465 37.2335C234.797 39.0788 234.177 40.6696 233.604 42.0059H228.068C227.273 39.5879 226.493 37.1858 225.73 34.7996C224.966 32.4134 224.266 30.0113 223.63 27.5933ZM252.893 42.0059H245.782V16.9032H252.893V42.0059ZM253.561 9.6492C253.561 10.9536 253.132 11.9877 252.272 12.7512C251.445 13.483 250.459 13.8489 249.314 13.8489C248.168 13.8489 247.166 13.483 246.307 12.7512C245.48 11.9877 245.066 10.9536 245.066 9.6492C245.066 8.34475 245.48 7.32665 246.307 6.59488C247.166 5.8313 248.168 5.44951 249.314 5.44951C250.459 5.44951 251.445 5.8313 252.272 6.59488C253.132 7.32665 253.561 8.34475 253.561 9.6492ZM265.638 29.2636C265.638 31.4589 266.131 33.2247 267.118 34.561C268.104 35.8972 269.567 36.5654 271.508 36.5654C272.144 36.5654 272.733 36.5495 273.274 36.5176C273.815 36.454 274.26 36.3904 274.61 36.3267V23.3936C274.165 23.1073 273.576 22.8687 272.844 22.6778C272.144 22.4869 271.429 22.3914 270.697 22.3914C267.324 22.3914 265.638 24.6822 265.638 29.2636ZM281.721 41.1946C281.085 41.3855 280.353 41.5763 279.526 41.7672C278.698 41.9263 277.824 42.0695 276.901 42.1968C276.01 42.324 275.087 42.4195 274.133 42.4831C273.21 42.5785 272.319 42.6263 271.46 42.6263C269.392 42.6263 267.547 42.324 265.924 41.7195C264.302 41.115 262.934 40.256 261.82 39.1424C260.707 37.9971 259.848 36.629 259.243 35.0382C258.67 33.4156 258.384 31.6021 258.384 29.5977C258.384 27.5615 258.639 25.7321 259.148 24.1095C259.657 22.4551 260.389 21.0552 261.343 19.9098C262.297 18.7644 263.459 17.8895 264.827 17.285C266.227 16.6805 267.817 16.3782 269.599 16.3782C270.585 16.3782 271.46 16.4737 272.224 16.6646C273.019 16.8555 273.815 17.1259 274.61 17.4759V6.11765L281.721 4.97228V41.1946ZM288.141 10.6514L295.251 9.50603V16.9032H303.794V22.8209H295.251V31.6498C295.251 33.1452 295.506 34.3383 296.015 35.2291C296.556 36.1199 297.622 36.5654 299.212 36.5654C299.976 36.5654 300.756 36.5017 301.551 36.3745C302.378 36.2154 303.126 36.0086 303.794 35.7541L304.796 41.29C303.937 41.64 302.983 41.9422 301.933 42.1968C300.883 42.4513 299.594 42.5785 298.067 42.5785C296.126 42.5785 294.52 42.324 293.247 41.815C291.974 41.2741 290.956 40.5423 290.193 39.6197C289.429 38.6652 288.888 37.5198 288.57 36.1836C288.284 34.8473 288.141 33.3679 288.141 31.7453V10.6514ZM309.585 42.0059V6.11765L316.695 4.97228V16.9986C317.173 16.8396 317.777 16.6964 318.509 16.5691C319.272 16.4101 320.004 16.3305 320.704 16.3305C322.74 16.3305 324.427 16.6169 325.763 17.1895C327.131 17.7304 328.213 18.5099 329.008 19.528C329.835 20.5461 330.408 21.7551 330.726 23.155C331.076 24.5549 331.251 26.1139 331.251 27.8319V42.0059H324.14V28.691C324.14 26.4002 323.838 24.7776 323.234 23.8231C322.661 22.8687 321.579 22.3914 319.988 22.3914C319.352 22.3914 318.747 22.4551 318.175 22.5823C317.634 22.6778 317.141 22.7891 316.695 22.9164V42.0059H309.585Z" fill="#330085"/>
<path d="M99.0098 69.6456C98.3039 69.6456 97.6974 69.5462 97.1904 69.3473C96.6833 69.1385 96.2607 68.8502 95.9227 68.4823C95.5946 68.1144 95.351 67.6819 95.1919 67.1848C95.0328 66.6877 94.9533 66.1409 94.9533 65.5443V59.0867H96.8473V65.3654C96.8473 65.8327 96.897 66.2353 96.9965 66.5734C97.1058 66.9015 97.255 67.1699 97.4439 67.3787C97.6427 67.5875 97.8714 67.7416 98.1299 67.841C98.3984 67.9405 98.6966 67.9902 99.0247 67.9902C99.3528 67.9902 99.6511 67.9405 99.9195 67.841C100.188 67.7416 100.417 67.5875 100.606 67.3787C100.804 67.1699 100.954 66.9015 101.053 66.5734C101.162 66.2353 101.217 65.8327 101.217 65.3654V59.0867H103.111V65.5443C103.111 66.1409 103.027 66.6877 102.858 67.1848C102.698 67.6819 102.45 68.1144 102.112 68.4823C101.784 68.8502 101.361 69.1385 100.844 69.3473C100.327 69.5462 99.7157 69.6456 99.0098 69.6456ZM105.425 61.8756C105.773 61.7761 106.225 61.6817 106.782 61.5922C107.338 61.5027 107.955 61.458 108.631 61.458C109.267 61.458 109.799 61.5475 110.227 61.7264C110.654 61.8955 110.992 62.139 111.241 62.4572C111.499 62.7654 111.678 63.1432 111.778 63.5906C111.887 64.0281 111.942 64.5103 111.942 65.0373V69.4219H110.137V65.3206C110.137 64.903 110.107 64.5501 110.048 64.2618C109.998 63.9635 109.909 63.7249 109.779 63.5459C109.66 63.357 109.491 63.2228 109.272 63.1432C109.063 63.0537 108.805 63.009 108.497 63.009C108.268 63.009 108.029 63.0239 107.781 63.0537C107.532 63.0836 107.348 63.1084 107.229 63.1283V69.4219H105.425V61.8756ZM116.863 69.571C116.326 69.5611 115.878 69.5014 115.52 69.392C115.173 69.2827 114.894 69.1286 114.685 68.9297C114.477 68.7209 114.327 68.4674 114.238 68.1691C114.158 67.8609 114.119 67.5129 114.119 67.1252V58.1472L115.923 57.8489V66.7822C115.923 67.0009 115.938 67.1848 115.968 67.334C116.008 67.4831 116.072 67.6124 116.162 67.7217C116.251 67.8211 116.371 67.9007 116.52 67.9603C116.679 68.0101 116.878 68.0498 117.116 68.0796L116.863 69.571ZM118.143 65.5592C118.143 64.8732 118.243 64.2717 118.442 63.7547C118.651 63.2377 118.924 62.8102 119.262 62.4721C119.6 62.1241 119.988 61.8656 120.425 61.6966C120.863 61.5176 121.31 61.4282 121.767 61.4282C122.841 61.4282 123.676 61.7612 124.273 62.4274C124.879 63.0935 125.183 64.0878 125.183 65.4101C125.183 65.5095 125.178 65.6239 125.168 65.7531C125.168 65.8724 125.163 65.9818 125.153 66.0812H120.008C120.057 66.7076 120.276 67.1948 120.664 67.5428C121.062 67.8808 121.633 68.0498 122.379 68.0498C122.816 68.0498 123.214 68.01 123.572 67.9305C123.94 67.851 124.228 67.7665 124.437 67.677L124.676 69.1534C124.576 69.2031 124.437 69.2578 124.258 69.3175C124.089 69.3672 123.89 69.4119 123.661 69.4517C123.443 69.5014 123.204 69.5412 122.946 69.571C122.687 69.6008 122.424 69.6158 122.155 69.6158C121.469 69.6158 120.873 69.5163 120.366 69.3175C119.859 69.1087 119.441 68.8253 119.113 68.4674C118.785 68.0995 118.541 67.672 118.382 67.1848C118.223 66.6877 118.143 66.1458 118.143 65.5592ZM123.378 64.7539C123.378 64.5053 123.343 64.2717 123.274 64.053C123.204 63.8243 123.1 63.6304 122.961 63.4713C122.831 63.3023 122.667 63.1731 122.468 63.0836C122.279 62.9842 122.051 62.9344 121.782 62.9344C121.504 62.9344 121.26 62.9891 121.052 63.0985C120.843 63.1979 120.664 63.3321 120.515 63.5012C120.376 63.6702 120.266 63.8641 120.187 64.0828C120.107 64.3015 120.052 64.5252 120.023 64.7539H123.378ZM129.84 68.1542C130.397 68.1542 130.819 68.1244 131.108 68.0647V66.0663C131.008 66.0365 130.864 66.0067 130.675 65.9768C130.486 65.947 130.278 65.9321 130.049 65.9321C129.85 65.9321 129.646 65.947 129.437 65.9768C129.239 66.0067 129.055 66.0613 128.886 66.1409C128.726 66.2204 128.597 66.3348 128.498 66.4839C128.398 66.6231 128.349 66.802 128.349 67.0208C128.349 67.4483 128.483 67.7466 128.751 67.9156C129.02 68.0747 129.383 68.1542 129.84 68.1542ZM129.691 61.4282C130.287 61.4282 130.79 61.5027 131.197 61.6519C131.605 61.801 131.928 62.0098 132.167 62.2782C132.415 62.5467 132.589 62.8748 132.689 63.2625C132.798 63.6404 132.853 64.0579 132.853 64.5153V69.2429C132.574 69.3026 132.152 69.3722 131.585 69.4517C131.028 69.5412 130.397 69.5859 129.691 69.5859C129.224 69.5859 128.796 69.5412 128.408 69.4517C128.021 69.3622 127.688 69.2181 127.409 69.0192C127.141 68.8204 126.927 68.5619 126.768 68.2437C126.619 67.9255 126.544 67.5328 126.544 67.0655C126.544 66.6181 126.629 66.2403 126.798 65.9321C126.977 65.6239 127.215 65.3753 127.514 65.1864C127.812 64.9876 128.155 64.8484 128.543 64.7688C128.94 64.6793 129.353 64.6346 129.78 64.6346C129.979 64.6346 130.188 64.6495 130.407 64.6793C130.625 64.6992 130.859 64.739 131.108 64.7986V64.5004C131.108 64.2916 131.083 64.0927 131.033 63.9038C130.983 63.7149 130.894 63.5509 130.765 63.4117C130.645 63.2625 130.481 63.1482 130.273 63.0687C130.074 62.9891 129.82 62.9494 129.512 62.9494C129.094 62.9494 128.712 62.9792 128.364 63.0388C128.016 63.0985 127.732 63.1681 127.514 63.2476L127.29 61.7861C127.518 61.7065 127.852 61.627 128.289 61.5475C128.726 61.4679 129.194 61.4282 129.691 61.4282ZM137.016 68.1244C137.493 68.1244 137.841 68.0697 138.06 67.9603C138.279 67.841 138.388 67.6422 138.388 67.3638C138.388 67.1053 138.269 66.8915 138.03 66.7225C137.802 66.5535 137.419 66.3695 136.882 66.1707C136.554 66.0514 136.251 65.9271 135.972 65.7979C135.704 65.6587 135.47 65.4996 135.271 65.3206C135.072 65.1417 134.913 64.9279 134.794 64.6793C134.685 64.4208 134.63 64.1076 134.63 63.7398C134.63 63.0239 134.893 62.4622 135.42 62.0545C135.947 61.637 136.663 61.4282 137.568 61.4282C138.025 61.4282 138.463 61.4729 138.88 61.5624C139.298 61.6419 139.611 61.7215 139.82 61.801L139.492 63.2625C139.293 63.1731 139.039 63.0935 138.731 63.0239C138.423 62.9444 138.065 62.9046 137.657 62.9046C137.29 62.9046 136.991 62.9692 136.763 63.0985C136.534 63.2178 136.42 63.4067 136.42 63.6652C136.42 63.7945 136.44 63.9088 136.479 64.0082C136.529 64.1076 136.609 64.2021 136.718 64.2916C136.827 64.3711 136.971 64.4556 137.15 64.5451C137.329 64.6247 137.548 64.7092 137.807 64.7986C138.234 64.9577 138.597 65.1168 138.895 65.2759C139.194 65.425 139.437 65.599 139.626 65.7979C139.825 65.9868 139.969 66.2055 140.059 66.4541C140.148 66.7026 140.193 67.0009 140.193 67.3489C140.193 68.0946 139.914 68.6613 139.358 69.049C138.811 69.4268 138.025 69.6158 137.001 69.6158C136.315 69.6158 135.763 69.5561 135.346 69.4368C134.928 69.3274 134.635 69.2379 134.466 69.1683L134.779 67.6621C135.048 67.7714 135.366 67.8758 135.734 67.9753C136.111 68.0747 136.539 68.1244 137.016 68.1244ZM141.878 69.4219V58.1472L143.683 57.8489V61.7115C143.882 61.6419 144.111 61.5823 144.369 61.5326C144.638 61.4828 144.901 61.458 145.16 61.458C145.786 61.458 146.303 61.5475 146.711 61.7264C147.128 61.8955 147.461 62.139 147.71 62.4572C147.958 62.7654 148.132 63.1383 148.232 63.5757C148.341 64.0132 148.396 64.5004 148.396 65.0373V69.4219H146.591V65.3206C146.591 64.903 146.561 64.5501 146.502 64.2618C146.452 63.9635 146.363 63.7249 146.233 63.5459C146.114 63.357 145.95 63.2228 145.741 63.1432C145.532 63.0537 145.274 63.009 144.966 63.009C144.727 63.009 144.483 63.0339 144.235 63.0836C143.986 63.1333 143.802 63.178 143.683 63.2178V69.4219H141.878ZM157.604 63.6652C158.051 62.9195 158.489 62.1639 158.916 61.3983C159.344 60.6328 159.732 59.8622 160.08 59.0867H162.167C161.611 60.1406 161.029 61.1895 160.423 62.2335C159.826 63.2675 159.185 64.3115 158.499 65.3654V69.4219H156.62V65.3952C155.934 64.3314 155.287 63.2775 154.681 62.2335C154.074 61.1895 153.493 60.1406 152.936 59.0867H155.143C155.491 59.8622 155.874 60.6328 156.291 61.3983C156.709 62.1639 157.147 62.9195 157.604 63.6652ZM169.657 65.5145C169.657 66.1309 169.568 66.6927 169.389 67.1997C169.21 67.7068 168.956 68.1393 168.628 68.4972C168.3 68.8552 167.903 69.1335 167.435 69.3324C166.978 69.5312 166.471 69.6307 165.914 69.6307C165.357 69.6307 164.85 69.5312 164.393 69.3324C163.936 69.1335 163.543 68.8552 163.215 68.4972C162.887 68.1393 162.628 67.7068 162.439 67.1997C162.26 66.6927 162.171 66.1309 162.171 65.5145C162.171 64.8981 162.26 64.3413 162.439 63.8442C162.628 63.3371 162.887 62.9046 163.215 62.5467C163.553 62.1888 163.95 61.9153 164.408 61.7264C164.865 61.5276 165.367 61.4282 165.914 61.4282C166.461 61.4282 166.963 61.5276 167.42 61.7264C167.888 61.9153 168.285 62.1888 168.613 62.5467C168.942 62.9046 169.195 63.3371 169.374 63.8442C169.563 64.3413 169.657 64.8981 169.657 65.5145ZM167.808 65.5145C167.808 64.739 167.639 64.1275 167.301 63.6801C166.973 63.2228 166.511 62.9941 165.914 62.9941C165.318 62.9941 164.85 63.2228 164.512 63.6801C164.184 64.1275 164.02 64.739 164.02 65.5145C164.02 66.3 164.184 66.9214 164.512 67.3787C164.85 67.8361 165.318 68.0647 165.914 68.0647C166.511 68.0647 166.973 67.8361 167.301 67.3787C167.639 66.9214 167.808 66.3 167.808 65.5145ZM177.914 69.1833C177.566 69.2727 177.114 69.3622 176.557 69.4517C176 69.5511 175.389 69.6008 174.723 69.6008C174.097 69.6008 173.57 69.5114 173.142 69.3324C172.724 69.1534 172.386 68.9049 172.128 68.5867C171.879 68.2686 171.7 67.8907 171.591 67.4533C171.482 67.0059 171.427 66.5187 171.427 65.9917V61.622H173.232V65.7084C173.232 66.5435 173.351 67.1401 173.589 67.498C173.838 67.8559 174.266 68.0349 174.872 68.0349C175.091 68.0349 175.319 68.025 175.558 68.0051C175.807 67.9852 175.991 67.9603 176.11 67.9305V61.622H177.914V69.1833ZM184.655 63.2476C184.506 63.1979 184.298 63.1482 184.029 63.0985C183.771 63.0388 183.467 63.009 183.119 63.009C182.921 63.009 182.707 63.0289 182.478 63.0687C182.259 63.1084 182.105 63.1432 182.016 63.1731V69.4219H180.211V61.9949C180.559 61.8656 180.992 61.7463 181.509 61.637C182.036 61.5176 182.617 61.458 183.254 61.458C183.373 61.458 183.512 61.4679 183.671 61.4878C183.83 61.4978 183.989 61.5176 184.148 61.5475C184.308 61.5674 184.462 61.5972 184.611 61.637C184.76 61.6668 184.879 61.6966 184.969 61.7264L184.655 63.2476ZM191.676 67.8709C191.785 67.8808 191.929 67.8907 192.108 67.9007C192.287 67.9007 192.531 67.9007 192.839 67.9007C194.102 67.9007 195.041 67.5825 195.658 66.9462C196.284 66.3 196.597 65.4002 196.597 64.2468C196.597 63.0736 196.294 62.1738 195.687 61.5475C195.081 60.9211 194.141 60.6079 192.869 60.6079C192.312 60.6079 191.914 60.6228 191.676 60.6527V67.8709ZM198.566 64.2468C198.566 65.1417 198.427 65.9221 198.148 66.5883C197.87 67.2445 197.472 67.7963 196.955 68.2437C196.448 68.6812 195.832 69.0093 195.106 69.228C194.39 69.4368 193.595 69.5412 192.72 69.5412C192.302 69.5412 191.83 69.5213 191.303 69.4815C190.776 69.4517 190.274 69.3821 189.797 69.2727V59.2359C190.274 59.1265 190.781 59.0569 191.318 59.0271C191.855 58.9972 192.332 58.9823 192.749 58.9823C193.614 58.9823 194.405 59.0867 195.121 59.2955C195.837 59.4944 196.448 59.8125 196.955 60.25C197.472 60.6775 197.87 61.2243 198.148 61.8905C198.427 62.5467 198.566 63.3321 198.566 64.2468ZM202.348 69.4219H200.543V61.622H202.348V69.4219ZM202.541 59.3403C202.541 59.6783 202.432 59.9467 202.213 60.1456C201.995 60.3444 201.736 60.4439 201.438 60.4439C201.13 60.4439 200.866 60.3444 200.647 60.1456C200.429 59.9467 200.319 59.6783 200.319 59.3403C200.319 58.9923 200.429 58.7188 200.647 58.52C200.866 58.3212 201.13 58.2217 201.438 58.2217C201.736 58.2217 201.995 58.3212 202.213 58.52C202.432 58.7188 202.541 58.9923 202.541 59.3403ZM206.067 65.3206C206.067 66.0862 206.231 66.6479 206.559 67.0059C206.897 67.3538 207.329 67.5278 207.856 67.5278C208.145 67.5278 208.413 67.4881 208.662 67.4085C208.92 67.329 209.129 67.2345 209.288 67.1252V63.0836C209.159 63.0537 209 63.0289 208.811 63.009C208.622 62.9792 208.383 62.9643 208.095 62.9643C207.439 62.9643 206.937 63.183 206.589 63.6205C206.241 64.048 206.067 64.6147 206.067 65.3206ZM211.092 68.6315C211.092 69.8743 210.774 70.784 210.138 71.3606C209.512 71.9373 208.547 72.2256 207.245 72.2256C206.768 72.2256 206.3 72.1859 205.843 72.1063C205.395 72.0268 204.988 71.9224 204.62 71.7931L204.948 70.257C205.256 70.3863 205.604 70.4907 205.992 70.5702C206.39 70.6498 206.817 70.6895 207.275 70.6895C208 70.6895 208.517 70.5404 208.826 70.2421C209.134 69.9439 209.288 69.5014 209.288 68.9148V68.6165C209.109 68.706 208.87 68.7955 208.572 68.885C208.284 68.9745 207.951 69.0192 207.573 69.0192C207.076 69.0192 206.618 68.9397 206.201 68.7806C205.793 68.6215 205.44 68.3879 205.142 68.0796C204.854 67.7714 204.625 67.3886 204.456 66.9313C204.297 66.464 204.217 65.9271 204.217 65.3206C204.217 64.7539 204.302 64.2319 204.471 63.7547C204.65 63.2775 204.903 62.8698 205.231 62.5318C205.569 62.1937 205.977 61.9303 206.454 61.7413C206.932 61.5524 207.473 61.458 208.08 61.458C208.667 61.458 209.223 61.5027 209.75 61.5922C210.277 61.6817 210.725 61.7761 211.092 61.8756V68.6315ZM215.208 69.4219H213.403V61.622H215.208V69.4219ZM215.402 59.3403C215.402 59.6783 215.292 59.9467 215.073 60.1456C214.855 60.3444 214.596 60.4439 214.298 60.4439C213.99 60.4439 213.726 60.3444 213.508 60.1456C213.289 59.9467 213.179 59.6783 213.179 59.3403C213.179 58.9923 213.289 58.7188 213.508 58.52C213.726 58.3212 213.99 58.2217 214.298 58.2217C214.596 58.2217 214.855 58.3212 215.073 58.52C215.292 58.7188 215.402 58.9923 215.402 59.3403ZM217.42 59.564L219.225 59.2657V61.622H221.999V63.1283H219.225V66.3049C219.225 66.9313 219.324 67.3787 219.523 67.6472C219.722 67.9156 220.06 68.0498 220.537 68.0498C220.865 68.0498 221.154 68.015 221.402 67.9454C221.661 67.8758 221.865 67.8112 222.014 67.7515L222.312 69.1833C222.103 69.2727 221.83 69.3622 221.492 69.4517C221.154 69.5511 220.756 69.6008 220.299 69.6008C219.742 69.6008 219.275 69.5263 218.897 69.3771C218.529 69.228 218.236 69.0142 218.017 68.7358C217.798 68.4475 217.644 68.1045 217.555 67.7068C217.465 67.2992 217.42 66.8368 217.42 66.3198V59.564ZM226.487 68.1542C227.044 68.1542 227.467 68.1244 227.755 68.0647V66.0663C227.656 66.0365 227.512 66.0067 227.323 65.9768C227.134 65.947 226.925 65.9321 226.696 65.9321C226.497 65.9321 226.294 65.947 226.085 65.9768C225.886 66.0067 225.702 66.0613 225.533 66.1409C225.374 66.2204 225.245 66.3348 225.145 66.4839C225.046 66.6231 224.996 66.802 224.996 67.0208C224.996 67.4483 225.13 67.7466 225.399 67.9156C225.667 68.0747 226.03 68.1542 226.487 68.1542ZM226.338 61.4282C226.935 61.4282 227.437 61.5027 227.845 61.6519C228.252 61.801 228.575 62.0098 228.814 62.2782C229.063 62.5467 229.237 62.8748 229.336 63.2625C229.445 63.6404 229.5 64.0579 229.5 64.5153V69.2429C229.222 69.3026 228.799 69.3722 228.232 69.4517C227.676 69.5412 227.044 69.5859 226.338 69.5859C225.871 69.5859 225.443 69.5412 225.056 69.4517C224.668 69.3622 224.335 69.2181 224.057 69.0192C223.788 68.8204 223.574 68.5619 223.415 68.2437C223.266 67.9255 223.192 67.5328 223.192 67.0655C223.192 66.6181 223.276 66.2403 223.445 65.9321C223.624 65.6239 223.863 65.3753 224.161 65.1864C224.459 64.9876 224.802 64.8484 225.19 64.7688C225.588 64.6793 226 64.6346 226.428 64.6346C226.627 64.6346 226.835 64.6495 227.054 64.6793C227.273 64.6992 227.507 64.739 227.755 64.7986V64.5004C227.755 64.2916 227.73 64.0927 227.681 63.9038C227.631 63.7149 227.541 63.5509 227.412 63.4117C227.293 63.2625 227.129 63.1482 226.92 63.0687C226.721 62.9891 226.468 62.9494 226.159 62.9494C225.742 62.9494 225.359 62.9792 225.011 63.0388C224.663 63.0985 224.38 63.1681 224.161 63.2476L223.937 61.7861C224.166 61.7065 224.499 61.627 224.936 61.5475C225.374 61.4679 225.841 61.4282 226.338 61.4282ZM234.424 69.571C233.887 69.5611 233.44 69.5014 233.082 69.392C232.734 69.2827 232.456 69.1286 232.247 68.9297C232.038 68.7209 231.889 68.4674 231.799 68.1691C231.72 67.8609 231.68 67.5129 231.68 67.1252V58.1472L233.485 57.8489V66.7822C233.485 67.0009 233.5 67.1848 233.529 67.334C233.569 67.4831 233.634 67.6124 233.723 67.7217C233.813 67.8211 233.932 67.9007 234.081 67.9603C234.24 68.0101 234.439 68.0498 234.678 68.0796L234.424 69.571ZM242.631 58.9823C244.132 58.9823 245.28 59.2557 246.076 59.8026C246.881 60.3494 247.284 61.2045 247.284 62.3677C247.284 62.9742 247.174 63.4962 246.956 63.9337C246.747 64.3612 246.439 64.7141 246.031 64.9925C245.623 65.261 245.126 65.4598 244.54 65.5891C243.953 65.7183 243.282 65.7829 242.526 65.7829H241.587V69.4219H239.708V59.2359C240.145 59.1364 240.627 59.0718 241.154 59.042C241.691 59.0022 242.183 58.9823 242.631 58.9823ZM242.765 60.6079C242.288 60.6079 241.895 60.6228 241.587 60.6527V64.1723H242.497C243.401 64.1723 244.097 64.048 244.584 63.7994C245.072 63.5409 245.315 63.0587 245.315 62.3528C245.315 62.0148 245.251 61.7314 245.121 61.5027C244.992 61.2741 244.813 61.0951 244.584 60.9658C244.356 60.8366 244.082 60.7471 243.764 60.6974C243.456 60.6377 243.123 60.6079 242.765 60.6079ZM255.702 65.5145C255.702 66.1309 255.613 66.6927 255.434 67.1997C255.255 67.7068 255.001 68.1393 254.673 68.4972C254.345 68.8552 253.947 69.1335 253.48 69.3324C253.023 69.5312 252.516 69.6307 251.959 69.6307C251.402 69.6307 250.895 69.5312 250.438 69.3324C249.98 69.1335 249.588 68.8552 249.259 68.4972C248.931 68.1393 248.673 67.7068 248.484 67.1997C248.305 66.6927 248.215 66.1309 248.215 65.5145C248.215 64.8981 248.305 64.3413 248.484 63.8442C248.673 63.3371 248.931 62.9046 249.259 62.5467C249.597 62.1888 249.995 61.9153 250.453 61.7264C250.91 61.5276 251.412 61.4282 251.959 61.4282C252.506 61.4282 253.008 61.5276 253.465 61.7264C253.932 61.9153 254.33 62.1888 254.658 62.5467C254.986 62.9046 255.24 63.3371 255.419 63.8442C255.608 64.3413 255.702 64.8981 255.702 65.5145ZM253.853 65.5145C253.853 64.739 253.684 64.1275 253.346 63.6801C253.018 63.2228 252.555 62.9941 251.959 62.9941C251.362 62.9941 250.895 63.2228 250.557 63.6801C250.229 64.1275 250.065 64.739 250.065 65.5145C250.065 66.3 250.229 66.9214 250.557 67.3787C250.895 67.8361 251.362 68.0647 251.959 68.0647C252.555 68.0647 253.018 67.8361 253.346 67.3787C253.684 66.9214 253.853 66.3 253.853 65.5145ZM257.472 59.564L259.276 59.2657V61.622H262.05V63.1283H259.276V66.3049C259.276 66.9313 259.376 67.3787 259.575 67.6472C259.773 67.9156 260.111 68.0498 260.589 68.0498C260.917 68.0498 261.205 68.015 261.454 67.9454C261.712 67.8758 261.916 67.8112 262.065 67.7515L262.363 69.1833C262.155 69.2727 261.881 69.3622 261.543 69.4517C261.205 69.5511 260.807 69.6008 260.35 69.6008C259.793 69.6008 259.326 69.5263 258.948 69.3771C258.58 69.228 258.287 69.0142 258.068 68.7358C257.85 68.4475 257.695 68.1045 257.606 67.7068C257.516 67.2992 257.472 66.8368 257.472 66.3198V59.564ZM263.231 65.5592C263.231 64.8732 263.33 64.2717 263.529 63.7547C263.738 63.2377 264.012 62.8102 264.35 62.4721C264.688 62.1241 265.075 61.8656 265.513 61.6966C265.95 61.5176 266.398 61.4282 266.855 61.4282C267.929 61.4282 268.764 61.7612 269.361 62.4274C269.967 63.0935 270.27 64.0878 270.27 65.4101C270.27 65.5095 270.265 65.6239 270.255 65.7531C270.255 65.8724 270.25 65.9818 270.24 66.0812H265.095C265.145 66.7076 265.364 67.1948 265.751 67.5428C266.149 67.8808 266.721 68.0498 267.467 68.0498C267.904 68.0498 268.302 68.01 268.66 67.9305C269.027 67.851 269.316 67.7665 269.525 67.677L269.763 69.1534C269.664 69.2031 269.525 69.2578 269.346 69.3175C269.177 69.3672 268.978 69.4119 268.749 69.4517C268.53 69.5014 268.292 69.5412 268.033 69.571C267.775 69.6008 267.511 69.6158 267.243 69.6158C266.557 69.6158 265.96 69.5163 265.453 69.3175C264.946 69.1087 264.529 68.8253 264.2 68.4674C263.872 68.0995 263.629 67.672 263.47 67.1848C263.311 66.6877 263.231 66.1458 263.231 65.5592ZM268.466 64.7539C268.466 64.5053 268.431 64.2717 268.361 64.053C268.292 63.8243 268.187 63.6304 268.048 63.4713C267.919 63.3023 267.755 63.1731 267.556 63.0836C267.367 62.9842 267.138 62.9344 266.87 62.9344C266.592 62.9344 266.348 62.9891 266.139 63.0985C265.93 63.1979 265.751 63.3321 265.602 63.5012C265.463 63.6702 265.354 63.8641 265.274 64.0828C265.195 64.3015 265.14 64.5252 265.11 64.7539H268.466ZM272.184 61.8756C272.532 61.7761 272.984 61.6817 273.541 61.5922C274.097 61.5027 274.714 61.458 275.39 61.458C276.026 61.458 276.558 61.5475 276.986 61.7264C277.413 61.8955 277.751 62.139 278 62.4572C278.258 62.7654 278.437 63.1432 278.537 63.5906C278.646 64.0281 278.701 64.5103 278.701 65.0373V69.4219H276.896V65.3206C276.896 64.903 276.866 64.5501 276.807 64.2618C276.757 63.9635 276.668 63.7249 276.538 63.5459C276.419 63.357 276.25 63.2228 276.031 63.1432C275.822 63.0537 275.564 63.009 275.256 63.009C275.027 63.009 274.788 63.0239 274.54 63.0537C274.291 63.0836 274.107 63.1084 273.988 63.1283V69.4219H272.184V61.8756ZM280.818 59.564L282.623 59.2657V61.622H285.396V63.1283H282.623V66.3049C282.623 66.9313 282.722 67.3787 282.921 67.6472C283.12 67.9156 283.458 68.0498 283.935 68.0498C284.263 68.0498 284.551 68.015 284.8 67.9454C285.058 67.8758 285.262 67.8112 285.411 67.7515L285.71 69.1833C285.501 69.2727 285.227 69.3622 284.889 69.4517C284.551 69.5511 284.154 69.6008 283.696 69.6008C283.14 69.6008 282.672 69.5263 282.294 69.3771C281.927 69.228 281.633 69.0142 281.415 68.7358C281.196 68.4475 281.042 68.1045 280.952 67.7068C280.863 67.2992 280.818 66.8368 280.818 66.3198V59.564ZM288.96 69.4219H287.156V61.622H288.96V69.4219ZM289.154 59.3403C289.154 59.6783 289.045 59.9467 288.826 60.1456C288.607 60.3444 288.349 60.4439 288.051 60.4439C287.742 60.4439 287.479 60.3444 287.26 60.1456C287.041 59.9467 286.932 59.6783 286.932 59.3403C286.932 58.9923 287.041 58.7188 287.26 58.52C287.479 58.3212 287.742 58.2217 288.051 58.2217C288.349 58.2217 288.607 58.3212 288.826 58.52C289.045 58.7188 289.154 58.9923 289.154 59.3403ZM294.007 68.1542C294.563 68.1542 294.986 68.1244 295.274 68.0647V66.0663C295.175 66.0365 295.031 66.0067 294.842 65.9768C294.653 65.947 294.444 65.9321 294.215 65.9321C294.017 65.9321 293.813 65.947 293.604 65.9768C293.405 66.0067 293.221 66.0613 293.052 66.1409C292.893 66.2204 292.764 66.3348 292.664 66.4839C292.565 66.6231 292.515 66.802 292.515 67.0208C292.515 67.4483 292.65 67.7466 292.918 67.9156C293.186 68.0747 293.549 68.1542 294.007 68.1542ZM293.858 61.4282C294.454 61.4282 294.956 61.5027 295.364 61.6519C295.771 61.801 296.095 62.0098 296.333 62.2782C296.582 62.5467 296.756 62.8748 296.855 63.2625C296.965 63.6404 297.019 64.0579 297.019 64.5153V69.2429C296.741 69.3026 296.318 69.3722 295.752 69.4517C295.195 69.5412 294.563 69.5859 293.858 69.5859C293.39 69.5859 292.963 69.5412 292.575 69.4517C292.187 69.3622 291.854 69.2181 291.576 69.0192C291.307 68.8204 291.094 68.5619 290.934 68.2437C290.785 67.9255 290.711 67.5328 290.711 67.0655C290.711 66.6181 290.795 66.2403 290.964 65.9321C291.143 65.6239 291.382 65.3753 291.68 65.1864C291.978 64.9876 292.321 64.8484 292.709 64.7688C293.107 64.6793 293.519 64.6346 293.947 64.6346C294.146 64.6346 294.355 64.6495 294.573 64.6793C294.792 64.6992 295.026 64.739 295.274 64.7986V64.5004C295.274 64.2916 295.249 64.0927 295.2 63.9038C295.15 63.7149 295.061 63.5509 294.931 63.4117C294.812 63.2625 294.648 63.1482 294.439 63.0687C294.24 62.9891 293.987 62.9494 293.679 62.9494C293.261 62.9494 292.878 62.9792 292.53 63.0388C292.182 63.0985 291.899 63.1681 291.68 63.2476L291.456 61.7861C291.685 61.7065 292.018 61.627 292.456 61.5475C292.893 61.4679 293.36 61.4282 293.858 61.4282ZM301.943 69.571C301.406 69.5611 300.959 69.5014 300.601 69.392C300.253 69.2827 299.975 69.1286 299.766 68.9297C299.557 68.7209 299.408 68.4674 299.319 68.1691C299.239 67.8609 299.199 67.5129 299.199 67.1252V58.1472L301.004 57.8489V66.7822C301.004 67.0009 301.019 67.1848 301.049 67.334C301.088 67.4831 301.153 67.6124 301.242 67.7217C301.332 67.8211 301.451 67.9007 301.6 67.9603C301.759 68.0101 301.958 68.0498 302.197 68.0796L301.943 69.571Z" fill="#330085" fill-opacity="0.77"/>
<path d="M13.8957 32.1434C13.1405 27.4472 13.9826 22.6333 16.2871 18.4726C18.5916 14.3118 22.2252 11.0448 26.6062 9.19471C30.9871 7.34458 35.862 7.0183 40.4502 8.26805C45.0385 9.51781 49.0748 12.2713 51.913 16.0878C54.7512 19.9043 56.227 24.5629 56.1041 29.3179C55.9812 34.0729 54.2668 38.6491 51.2353 42.3139C48.2037 45.9787 44.0305 48.5201 39.3838 49.5311C34.7371 50.5421 29.8856 49.9644 25.6061 47.8904" stroke="#330085" stroke-width="2.29584" stroke-linecap="round"/>
<path d="M57.2086 32.1362C61.6856 33.7945 65.4737 36.913 67.9617 40.9886C70.4497 45.0643 71.4926 49.8594 70.9221 54.6006C70.3516 59.3418 68.2009 63.7525 64.8171 67.1212C61.4334 70.4899 57.0137 72.6203 52.2712 73.1686C47.5287 73.717 42.7397 72.6514 38.6768 70.1438C34.6139 67.6361 31.5139 63.8326 29.877 59.3467C28.24 54.8608 28.1616 49.9541 29.6544 45.4181C31.1471 40.8821 34.124 36.9815 38.1047 34.3452" stroke="#1400FF" stroke-width="2.29584" stroke-linecap="round"/>
<path d="M33.4637 7.56804C37.7291 7.28521 41.9806 8.29618 45.6625 10.4688C49.3443 12.6414 52.2851 15.8746 54.1005 19.7457C55.9159 23.6169 56.5214 27.9458 55.8378 32.1667C55.1542 36.3876 53.2133 40.304 50.2689 43.4039" stroke="#330085" stroke-width="2.29584" stroke-linecap="round"/>
<path d="M35.8684 68.6526C32.1718 71.6878 27.5595 73.3864 22.7778 73.4736C17.9962 73.5609 13.325 72.0316 9.52021 69.1334C5.71543 66.2351 2.99972 62.1374 1.81266 57.5033C0.625594 52.8693 1.03665 47.9702 2.9793 43.5989C4.92194 39.2276 8.28247 35.6399 12.517 33.4165C16.7514 31.1931 21.6121 30.464 26.3123 31.3472C31.0126 32.2304 35.2774 34.6742 38.4165 38.2831C41.5556 41.8921 43.3854 46.4551 43.6096 51.2335" stroke="#8000FF" stroke-width="2.29584" stroke-linecap="square"/>
<path d="M48.6661 45.0933C46.3763 46.9549 43.7239 48.3189 40.878 49.0985" stroke="#330085" stroke-width="2.29584" stroke-linecap="round"/>
<path d="M53.9026 72.9154C49.7904 73.7185 45.5326 73.2873 41.6648 71.6761C37.7969 70.0648 34.4918 67.3454 32.1652 63.86" stroke="#1400FF" stroke-width="2.29584" stroke-linecap="round"/>
<path d="M42.1798 28.5639C42.1798 31.7883 39.5666 34.4017 36.3435 34.4017C33.1205 34.4017 30.5073 31.7883 30.5073 28.5639C30.5073 25.3395 33.1205 22.726 36.3435 22.726C39.5666 22.726 42.1798 25.3395 42.1798 28.5639Z" fill="white" stroke="#1400FF" stroke-width="2.29584"/>
<path d="M55.3018 52.0424C55.3018 55.2668 52.6886 57.8802 49.4656 57.8802C46.2426 57.8802 43.6294 55.2668 43.6294 52.0424C43.6294 48.818 46.2426 46.2046 49.4656 46.2046C52.6886 46.2046 55.3018 48.818 55.3018 52.0424Z" fill="white" stroke="#8000FF" stroke-width="2.29584"/>
<path d="M28.1251 52.8549C28.1251 56.0793 25.5119 58.6927 22.2888 58.6927C19.0658 58.6927 16.4526 56.0793 16.4526 52.8549C16.4526 49.6305 19.0658 47.0171 22.2888 47.0171C25.5119 47.0171 28.1251 49.6305 28.1251 52.8549Z" fill="white" stroke="#330085" stroke-width="2.29584"/>
</svg>
