<svg width="16" height="12" viewBox="0 0 16 12" fill="none" xmlns="http://www.w3.org/2000/svg">
<path d="M1.60078 5.20054C1.15895 5.20054 0.800781 5.55872 0.800781 6.00054C0.800781 6.44237 1.15895 6.80054 1.60078 6.80054V5.20054ZM15.5379 6.56622C15.8503 6.25381 15.8503 5.74728 15.5379 5.43486L10.4467 0.343689C10.1343 0.0312702 9.62777 0.0312702 9.31536 0.343689C9.00294 0.656109 9.00294 1.16264 9.31536 1.47506L13.8408 6.00054L9.31536 10.526C9.00294 10.8384 9.00294 11.345 9.31536 11.6574C9.62777 11.9698 10.1343 11.9698 10.4467 11.6574L15.5379 6.56622ZM1.60078 6.80054H14.9722V5.20054H1.60078V6.80054Z" fill="#3D4751"/>
</svg>
