<svg width="24" height="24" viewBox="0 0 24 24" fill="none" xmlns="http://www.w3.org/2000/svg">
<path d="M21.543 6.85486C21.5576 7.06644 21.5576 7.27801 21.5576 7.49154C21.5576 13.9978 16.6045 21.5015 7.54759 21.5015V21.4976C4.87215 21.5015 2.25229 20.7352 0 19.2902C0.389031 19.337 0.780012 19.3604 1.17197 19.3614C3.38915 19.3633 5.54296 18.6194 7.28726 17.2495C5.18026 17.2095 3.3326 15.8357 2.68714 13.8301C3.42523 13.9725 4.18574 13.9432 4.91018 13.7453C2.61304 13.2812 0.96039 11.2629 0.96039 8.91896V8.85656C1.64485 9.23779 2.41121 9.44937 3.19512 9.47277C1.03157 8.02682 0.364656 5.14858 1.67118 2.89824C4.17111 5.97442 7.8596 7.8445 11.8191 8.04243C11.4223 6.33225 11.9644 4.54017 13.2436 3.33798C15.2268 1.47375 18.3459 1.5693 20.2101 3.55151C21.3129 3.33408 22.3698 2.92945 23.337 2.35614C22.9694 3.49593 22.2001 4.46412 21.1725 5.07935C22.1484 4.9643 23.102 4.703 24 4.30422C23.3389 5.29288 22.5073 6.15577 21.5439 6.85291L21.543 6.85486Z" fill="#272E34"/>
</svg>
