<svg width="24" height="24" viewBox="0 0 24 24" fill="none" xmlns="http://www.w3.org/2000/svg">
<g clip-path="url(#clip0_114_2280)">
<path d="M7.03008 0.083057C5.75328 0.143297 4.88112 0.347777 4.11912 0.646337C3.33024 0.953777 2.6616 1.3661 1.99632 2.03402C1.33032 2.70242 0.921365 3.37226 0.616085 4.16186C0.320645 4.92578 0.120245 5.79842 0.0640855 7.07594C0.00792558 8.3561 -0.00479442 8.76434 0.00144558 12.0231C0.00768558 15.2813 0.0220855 15.6903 0.0830455 16.9707C0.144005 18.2472 0.347765 19.1189 0.646325 19.8814C0.954245 20.6703 1.36608 21.3387 2.03424 22.0042C2.70216 22.6697 3.37248 23.0784 4.16256 23.3839C4.92576 23.6791 5.79864 23.88 7.07592 23.9359C8.35584 23.9923 8.76456 24.0048 12.0223 23.9986C15.2815 23.9923 15.6902 23.9779 16.9701 23.9172C18.2469 23.8563 19.1181 23.6518 19.8811 23.3539C20.67 23.0453 21.3386 22.6342 22.0039 21.966C22.6692 21.2981 23.0781 20.6278 23.3834 19.8377C23.6788 19.0745 23.88 18.2016 23.9354 16.9251C23.9913 15.6444 24.0045 15.2352 23.9983 11.9772C23.992 8.71874 23.9774 8.3105 23.9167 7.03082C23.856 5.7533 23.6515 4.88186 23.3534 4.11914C23.045 3.33026 22.6336 2.66234 21.9657 1.99634C21.2978 1.33106 20.6275 0.921377 19.8374 0.616817C19.0737 0.321377 18.2013 0.120017 16.924 0.064817C15.6444 0.00769697 15.2359 -0.00478302 11.9769 0.00145698C8.71872 0.00769698 8.31 0.021617 7.03008 0.083057ZM7.17024 21.7762C6.00024 21.7253 5.36496 21.5309 4.9416 21.3679C4.38096 21.151 3.98088 20.8908 3.55968 20.473C3.13944 20.0535 2.87856 19.6546 2.65968 19.0951C2.49528 18.6718 2.29728 18.0372 2.24256 16.8672C2.18304 15.6024 2.16936 15.223 2.1636 12.0187C2.15736 8.81546 2.16912 8.43578 2.22432 7.17002C2.27448 6.00098 2.47008 5.36474 2.63256 4.94186C2.84952 4.3805 3.10872 3.98114 3.52752 3.55994C3.94704 3.13898 4.34592 2.87882 4.90584 2.65994C5.32896 2.49458 5.96328 2.29826 7.1328 2.24282C8.39832 2.18282 8.77752 2.1701 11.9808 2.16386C15.1848 2.15762 15.5644 2.1689 16.8302 2.22458C17.9992 2.27546 18.6355 2.46914 19.0581 2.63282C19.6192 2.84978 20.0193 3.10826 20.44 3.52778C20.8608 3.9473 21.1216 4.34546 21.3405 4.90658C21.5056 5.3285 21.7022 5.96378 21.7574 7.13282C21.8176 8.39834 21.8313 8.77778 21.8371 11.9813C21.8433 15.1855 21.8316 15.565 21.7761 16.83C21.7252 18 21.5311 18.6355 21.3679 19.0594C21.1509 19.6195 20.8915 20.0196 20.4724 20.4408C20.0534 20.8603 19.6545 21.1219 19.0941 21.3408C18.672 21.5057 18.0367 21.7025 16.8679 21.7579C15.6024 21.8175 15.2232 21.8311 12.0187 21.8369C8.81544 21.8431 8.436 21.8311 7.17024 21.7762ZM16.9526 5.58554C16.954 6.38018 17.6004 7.02362 18.395 7.02218C19.1901 7.02074 19.8336 6.3749 19.8324 5.58002C19.8307 4.78538 19.1846 4.14146 18.3895 4.1429C17.5944 4.14434 16.9511 4.7909 16.9526 5.58554ZM5.83848 12.0118C5.84496 15.415 8.60904 18.1678 12.0115 18.1611C15.4142 18.1543 18.1684 15.3912 18.162 11.988C18.1552 8.58602 15.3909 5.83178 11.9877 5.83826C8.58528 5.84498 5.83176 8.6093 5.83848 12.0118ZM7.99992 12.0075C7.99608 9.79874 9.78384 8.00426 11.992 8.00042C14.2008 7.9961 15.9955 9.78314 15.9998 11.9923C16.0041 14.2015 14.2164 15.9955 12.0072 15.9999C9.79872 16.0042 8.004 14.2167 7.99992 12.0075Z" fill="#272E34"/>
</g>
<defs>
<clipPath id="clip0_114_2280">
<rect width="24" height="24" fill="white"/>
</clipPath>
</defs>
</svg>
