<svg width="201" height="64" viewBox="0 0 201 64" fill="none" xmlns="http://www.w3.org/2000/svg">
<g clip-path="url(#clip0_71_451)">
<g clip-path="url(#clip1_71_451)">
<path d="M142.722 32.6641H140.115L147.125 49.1301H149.812L156.806 32.6641H154.214L148.475 46.2277L142.722 32.6641ZM125.191 46.7785C123.175 46.7785 122.124 45.8379 122.029 43.9566L133.906 41.2898C135.517 40.9543 136.323 39.6468 136.323 37.3673C136.323 34.2305 134.468 32.6628 130.759 32.6641H125.196C121.484 32.6641 119.629 34.4936 119.633 38.1527V43.6414C119.633 47.2986 121.487 49.1282 125.196 49.1301H130.759C134.472 49.1301 136.326 47.3006 136.323 43.6414H133.936C133.936 45.7328 132.876 46.7785 130.755 46.7785H125.191ZM130.755 35.0157C132.876 35.0157 133.936 36.0614 133.936 38.1527C133.939 38.343 133.875 38.5282 133.757 38.6769C133.638 38.8256 133.472 38.9286 133.286 38.9683L122.013 41.5245V38.1527C122.013 36.0614 123.074 35.0157 125.195 35.0157H130.755ZM112.648 40.5044V49.1301H115.029V40.5044C115.029 35.2762 112.379 32.6628 107.078 32.6641H98.3335V49.1301H100.72V35.0157H107.079C110.792 35.0157 112.648 36.8452 112.648 40.5044ZM90.9635 40.5044V49.1301H93.35V40.5044C93.35 35.2762 90.6994 32.6628 85.3982 32.6641H76.6541V49.1301H79.0406V35.0157H85.4001C89.1077 35.0157 90.9622 36.8452 90.9635 40.5044ZM61.3294 46.7785C59.3182 46.7785 58.2641 45.8379 58.1671 43.9566L70.0444 41.2898C71.6555 40.9543 72.461 39.6468 72.461 37.3673C72.461 34.2305 70.6065 32.6628 66.8976 32.6641H61.3294C57.6173 32.6641 55.7628 34.4936 55.7661 38.1527V43.6414C55.7661 47.2986 57.6205 49.1282 61.3294 49.1301H66.8928C70.6049 49.1301 72.4594 47.3006 72.4561 43.6414H70.0658C70.0658 45.7328 69.0052 46.7785 66.8841 46.7785H61.3294ZM66.8928 35.0157C69.0139 35.0157 70.0745 36.0614 70.0745 38.1527C70.0771 38.343 70.0137 38.5282 69.895 38.6769C69.7764 38.8256 69.6098 38.9286 69.4238 38.9683L58.1516 41.5245V38.1527C58.1516 36.0614 59.2106 35.0157 61.3285 35.0157H66.8928ZM45.6091 35.0157C47.7302 35.0157 48.7892 36.0614 48.7859 38.1527V46.7785H40.0399C37.9188 46.7785 36.8598 45.7328 36.8631 43.6414V38.1527C36.8631 36.0614 37.922 35.0157 40.0399 35.0157H45.6091ZM34.4766 43.6414C34.4766 47.2986 36.331 49.1282 40.0399 49.1301H48.7859V50.6962C48.7859 52.7876 47.727 53.8333 45.6091 53.8333H36.963V56.1849H45.6091C49.3167 56.1849 51.1712 54.3554 51.1724 50.6962V38.1527C51.1724 34.4956 49.318 32.666 45.6091 32.6641H40.0399C36.331 32.6641 34.4766 34.4936 34.4766 38.1527V43.6414Z" fill="#093145"/>
<path d="M163.84 23.8146H153.994C151.607 23.8146 150.413 22.6206 150.412 20.2326V13.9683C150.412 11.5816 151.606 10.3875 153.994 10.3862H160.263C162.649 10.3862 163.843 11.5803 163.845 13.9683V23.8146H163.84ZM166.527 26.6267V13.9683C166.526 9.78892 164.437 7.69922 160.258 7.69922H153.984C149.806 7.69922 147.717 9.78892 147.715 13.9683V20.2374C147.715 24.4149 149.805 26.5046 153.984 26.5065H163.83V26.6267C163.881 28.1928 164.041 29.0335 163.119 30.1176H163.08C163.538 30.1263 163.994 30.0416 164.419 29.8686C164.843 29.6956 165.228 29.438 165.551 29.1114C165.873 28.7848 166.125 28.3961 166.292 27.969C166.459 27.5418 166.537 27.0851 166.522 26.6267" fill="#BD8F3C"/>
</g>
</g>
<defs>
<clipPath id="clip0_71_451">
<rect width="200" height="64" fill="white" transform="translate(0.5)"/>
</clipPath>
<clipPath id="clip1_71_451">
<rect width="132.047" height="64" fill="white" transform="translate(34.4766)"/>
</clipPath>
</defs>
</svg>
