<svg width="201" height="64" viewBox="0 0 201 64" fill="none" xmlns="http://www.w3.org/2000/svg">
<g clip-path="url(#clip0_71_494)">
<path d="M26.6903 22.9019V29.5192H42.5073C42.0231 33.2314 40.7857 35.9483 38.9027 37.8581C36.5893 40.1715 32.9848 42.7001 26.6903 42.7001C16.9526 42.7001 9.33997 34.8454 9.33997 25.1077C9.33997 15.37 16.9526 7.51531 26.6903 7.51531C31.9357 7.51531 35.7824 9.58659 38.6068 12.2497L43.2605 7.59601C39.3331 3.77626 34.0608 0.871094 26.6903 0.871094C13.348 0.871094 2.13086 11.7386 2.13086 25.0808C2.13086 38.423 13.348 49.2905 26.6903 49.2905C33.8994 49.2905 39.3331 46.9233 43.5833 42.5118C47.941 38.154 49.3129 31.994 49.3129 27.0445C49.3129 25.5112 49.2053 24.0855 48.9632 22.9019H26.6903Z" fill="#4285F4"/>
<path d="M69.0829 17.5195C60.4481 17.5195 53.4004 24.0831 53.4004 33.1482C53.4004 42.1327 60.4481 48.7769 69.0829 48.7769C77.7177 48.7769 84.7654 42.1596 84.7654 33.1482C84.7654 24.0831 77.7177 17.5195 69.0829 17.5195ZM69.0829 42.6169C64.3486 42.6169 60.2598 38.7165 60.2598 33.1482C60.2598 27.5262 64.3486 23.6796 69.0829 23.6796C73.8172 23.6796 77.906 27.5262 77.906 33.1482C77.906 38.7165 73.8172 42.6169 69.0829 42.6169Z" fill="#EA4335"/>
<path d="M145.963 21.0165H145.721C144.187 19.1873 141.228 17.5195 137.489 17.5195C129.688 17.5195 122.883 24.3251 122.883 33.1482C122.883 41.9175 129.688 48.7769 137.489 48.7769C141.228 48.7769 144.187 47.1092 145.721 45.2262H145.963V47.4051C145.963 53.3768 142.762 56.5779 137.624 56.5779C133.427 56.5779 130.818 53.5651 129.742 51.0096L123.771 53.4844C125.492 57.6269 130.038 62.711 137.624 62.711C145.667 62.711 152.472 57.9766 152.472 46.4367V18.3265H145.963V21.0165ZM138.081 42.6169C133.347 42.6169 129.742 38.582 129.742 33.1482C129.742 27.6338 133.347 23.6796 138.081 23.6796C142.762 23.6796 146.42 27.7145 146.42 33.202C146.447 38.6627 142.762 42.6169 138.081 42.6169Z" fill="#4285F4"/>
<path d="M104.054 17.5195C95.4188 17.5195 88.3711 24.0831 88.3711 33.1482C88.3711 42.1327 95.4188 48.7769 104.054 48.7769C112.688 48.7769 119.736 42.1596 119.736 33.1482C119.736 24.0831 112.688 17.5195 104.054 17.5195ZM104.054 42.6169C99.3193 42.6169 95.2305 38.7165 95.2305 33.1482C95.2305 27.5262 99.3193 23.6796 104.054 23.6796C108.788 23.6796 112.877 27.5262 112.877 33.1482C112.877 38.7165 108.788 42.6169 104.054 42.6169Z" fill="#FBBC05"/>
<path d="M157.852 1.51562H164.603V48.7784H157.852V1.51562Z" fill="#34A853"/>
<path d="M185.451 42.6169C181.954 42.6169 179.48 41.0298 177.866 37.8826L198.767 29.2478L198.067 27.4724C196.776 23.9755 192.795 17.5195 184.698 17.5195C176.655 17.5195 169.957 23.841 169.957 33.1482C169.957 41.9175 176.574 48.7769 185.451 48.7769C192.607 48.7769 196.749 44.3923 198.471 41.8637L193.145 38.313C191.369 40.8953 188.948 42.6169 185.451 42.6169ZM184.967 23.3837C187.738 23.3837 190.105 24.8093 190.885 26.8268L176.763 32.664C176.763 26.1005 181.416 23.3837 184.967 23.3837Z" fill="#EA4335"/>
</g>
<defs>
<clipPath id="clip0_71_494">
<rect width="200" height="64" fill="white" transform="translate(0.5)"/>
</clipPath>
</defs>
</svg>
