<svg width="201" height="64" viewBox="0 0 201 64" fill="none" xmlns="http://www.w3.org/2000/svg">
<g clip-path="url(#clip0_71_461)">
<g clip-path="url(#clip1_71_461)">
<g clip-path="url(#clip2_71_461)">
<path d="M70.537 24.2133H66.4741V22.1818H73.1972V19.3281H63.1367V32.0488H66.4741V27.0186H70.537V24.2133Z" fill="#0033A0"/>
<path d="M82.193 32.0488H85.9657L83.4022 27.1637L83.4989 27.1153C84.9983 26.4382 85.7722 25.1806 85.7722 23.4394C85.7722 20.6824 84.1761 19.3281 80.8387 19.3281H75.1797V32.0488H78.4687V27.6957H80.1132L82.193 32.0488ZM78.4687 22.0367H80.742C81.8544 22.0367 82.4348 22.5688 82.4348 23.5361C82.4348 24.6002 81.8544 25.0839 80.6936 25.0839H78.4687V22.0367Z" fill="#0033A0"/>
<path d="M95.3967 26.8251V24.0681H91.5273V22.1334H97.9118V19.3281H88.2383V32.0488H98.0569V29.2918H91.5273V26.8251H95.3967Z" fill="#0033A0"/>
<path d="M110.197 28.2259C110.197 26.001 109.036 24.9369 105.602 24.1147C103.958 23.7277 103.377 23.4859 103.377 22.9055C103.377 22.2767 103.812 21.9865 104.828 21.9865C106.037 21.9865 107.198 22.3734 108.407 23.1473L110.052 20.5355C108.649 19.5681 107.053 19.1328 105.022 19.1328C101.974 19.1328 100.04 20.6806 100.04 23.099C100.04 25.6624 101.491 26.4363 104.586 27.1618C106.328 27.5488 106.86 27.8873 106.86 28.4678C106.86 29.2416 106.182 29.4351 105.07 29.4351C103.861 29.4351 102.265 28.8063 101.297 28.1776L99.7012 30.7894C101.152 31.7084 103.135 32.2888 105.022 32.2888C106.908 32.2888 110.197 31.7568 110.197 28.2259Z" fill="#0033A0"/>
<path d="M119.678 26.8251V24.0681H115.809V22.1334H122.193V19.3281H112.52V32.0488H122.338V29.2918H115.809V26.8251H119.678Z" fill="#0033A0"/>
<path d="M129.98 27.8408L133.027 32.0488H135.784V19.3281H132.592V22.7622C132.592 23.391 132.592 25.4708 132.689 26.0996L132.785 26.8251L132.447 26.1963C132.157 25.6643 131.044 23.9714 130.415 23.1492L127.61 19.3765H124.611V32.0972H127.804V28.2278C127.804 27.4055 127.804 25.5192 127.707 24.8904L127.61 24.2616L127.9 24.7937C128.287 25.3741 129.4 27.0186 129.98 27.8408Z" fill="#0033A0"/>
<path d="M141.879 19.3281H138.445V32.0488H141.879V19.3281Z" fill="#0033A0"/>
<path d="M150.004 32.2906C153.632 32.2906 155.615 30.3076 155.615 26.68V19.3281H152.181V26.6316C152.181 28.8565 151.02 29.3402 150.053 29.3402C148.65 29.3402 147.924 28.4212 147.924 26.6316V19.3281H144.49V26.6316C144.49 31.2749 147.489 32.2906 150.004 32.2906Z" fill="#0033A0"/>
<path d="M168.287 28.2259C168.287 26.001 167.126 24.9369 163.692 24.1147C162.047 23.7277 161.467 23.4859 161.467 22.9055C161.467 22.2767 161.902 21.9865 162.918 21.9865C164.127 21.9865 165.288 22.3734 166.497 23.1473L168.142 20.5355C166.739 19.5681 165.143 19.1328 163.111 19.1328C160.064 19.1328 158.13 20.6806 158.13 23.099C158.13 25.6624 159.581 26.4363 162.676 27.1618C164.417 27.5488 164.949 27.8873 164.949 28.4678C164.949 29.2416 164.272 29.4351 163.16 29.4351C161.951 29.4351 160.354 28.8063 159.387 28.1776L157.791 30.7894C159.242 31.7084 161.225 32.2888 163.111 32.2888C164.998 32.2888 168.287 31.7568 168.287 28.2259Z" fill="#0033A0"/>
<path d="M72.7604 48.157V51.1558H75.9043V38.3867H72.8571L71.3093 41.7725C70.4871 43.5621 69.9067 44.9647 69.6648 45.6419L69.5681 46.0288L69.4714 45.6419C69.2779 44.868 68.5524 43.2718 67.8269 41.7725L66.2791 38.3867H63.1836V51.1074H66.3275V48.157C66.3275 46.7059 66.3275 45.6419 66.2307 44.7229L66.1824 44.0457L66.4242 44.6745C66.8112 45.5935 67.4399 47.0929 67.9236 48.0602L69.5197 51.446L71.1159 48.0602C71.5996 47.0929 72.2283 45.5935 72.6153 44.6745L72.8571 44.0457L72.8087 44.7229C72.8087 45.6419 72.7604 46.7059 72.7604 48.157Z" fill="#0033A0"/>
<path d="M85.7717 45.8837V43.1267H81.9023V41.192H88.2868V38.3867H78.6133V51.1074H88.4319V48.3504H81.9023V45.8837H85.7717Z" fill="#0033A0"/>
<path d="M95.1554 38.3867H90.7539V51.1074H94.8652C99.7019 51.1074 101.733 49.1727 101.733 44.6745C101.733 40.3214 99.7019 38.3867 95.1554 38.3867ZM95.0586 48.3021H94.188V41.2404H95.2037C97.4286 41.2404 98.2992 42.2078 98.2992 44.7229C98.2992 47.3347 97.3803 48.3021 95.0586 48.3021Z" fill="#0033A0"/>
<path d="M107.149 38.3867H103.715V51.1074H107.149V38.3867Z" fill="#0033A0"/>
<path d="M114.986 38.1914C111.455 38.1914 109.182 40.7549 109.182 44.7694C109.182 48.8323 111.407 51.3474 114.986 51.3474C118.13 51.3474 119.484 49.5578 120.209 48.1551L117.356 46.6557C116.727 47.7682 116.195 48.4453 114.986 48.4453C113.535 48.4453 112.664 47.091 112.664 44.7694C112.664 42.4478 113.486 41.0935 114.937 41.0935C116.195 41.0935 116.679 41.9641 117.114 43.0282L120.161 41.819C119.339 39.5941 118.178 38.1914 114.986 38.1914Z" fill="#0033A0"/>
<path d="M129.496 48.8341L130.222 51.1074H133.849L129.206 38.3867H125.723L121.08 51.1074H124.659L125.385 48.8341H129.496ZM126.497 45.2066C126.933 43.6104 127.174 42.8849 127.32 42.0143L127.416 41.4339L127.513 42.0143C127.658 42.7882 127.852 43.4653 128.238 44.8196L128.625 46.2706H126.159L126.497 45.2066Z" fill="#0033A0"/>
<path d="M135.639 38.3867V51.1074H144.78V48.2053H139.073V38.3867H135.639Z" fill="#0033A0"/>
<path d="M157.984 38.1914C154.453 38.1914 152.18 40.7549 152.18 44.7694C152.18 48.8323 154.405 51.3474 157.984 51.3474C161.128 51.3474 162.482 49.5578 163.207 48.1551L160.354 46.6557C159.725 47.7682 159.193 48.4453 157.984 48.4453C156.533 48.4453 155.662 47.091 155.662 44.7694C155.662 42.4478 156.484 41.0935 157.935 41.0935C159.193 41.0935 159.677 41.9641 160.112 43.0282L163.159 41.819C162.289 39.5941 161.128 38.1914 157.984 38.1914Z" fill="#0033A0"/>
<path d="M172.107 48.8341L172.833 51.1074H176.46L171.817 38.3867H168.335L163.691 51.1074H167.271L167.996 48.8341H172.107ZM169.157 45.1582C169.592 43.5621 169.786 42.8365 169.979 42.0143L170.076 41.4339L170.173 42.0143C170.318 42.7882 170.511 43.4653 170.898 44.8196L171.285 46.2706H168.818L169.157 45.1582Z" fill="#0033A0"/>
<path d="M185.021 51.1074H188.793L186.181 46.2223L186.278 46.1739C187.778 45.4968 188.551 44.2392 188.551 42.498C188.551 39.741 186.955 38.3867 183.618 38.3867H177.959V51.1074H181.248V46.7543H182.892L185.021 51.1074ZM181.248 41.0953H183.521C184.634 41.0953 185.214 41.6273 185.214 42.5947C185.214 43.6588 184.634 44.1425 183.473 44.1425H181.248V41.0953Z" fill="#0033A0"/>
<path d="M197.838 45.8837V43.1267H193.969V41.192H200.353V38.3867H190.68V51.1074H200.498V48.3504H193.969V45.8837H197.838Z" fill="#0033A0"/>
<path d="M26.9087 15.9411L0.5 11.3945L6.20738 20.2942L26.9087 24.8407L47.61 20.2942L53.3174 11.3945L26.9087 15.9411Z" fill="#0033A0"/>
<path d="M26.9093 31.7577L11.4316 28.4688L16.7037 36.6912L26.9093 39.3031L37.1148 36.6429L42.3869 28.4688L26.9093 31.7577Z" fill="#0033A0"/>
<path d="M26.9096 52.6048L32.7137 43.5117L26.9096 45.1078L21.1055 43.5117L26.9096 52.6048Z" fill="#0033A0"/>
</g>
</g>
</g>
<defs>
<clipPath id="clip0_71_461">
<rect width="200" height="64" fill="white" transform="translate(0.5)"/>
</clipPath>
<clipPath id="clip1_71_461">
<rect width="200" height="64" fill="white" transform="translate(0.5)"/>
</clipPath>
<clipPath id="clip2_71_461">
<rect width="200" height="41.2092" fill="white" transform="translate(0.5 11.3945)"/>
</clipPath>
</defs>
</svg>
